<?xml version="1.0" encoding="UTF-8"?>
<svg id="Layer_2" data-name="Layer 2" xmlns="http://www.w3.org/2000/svg" viewBox="0 0 2230.33 1602.36">
  <defs>
    <style>
      .cls-1 {
        opacity: .7;
      }

      .cls-2 {
        fill: #8ad8ff;
      }

      .cls-3 {
        fill: #9dc89e;
      }

      .cls-4 {
        fill: #fff;
      }

      .cls-5 {
        fill: #5c4e6d;
      }

      .cls-6 {
        fill: #40a3db;
      }

      .cls-7 {
        fill: #f6a49d;
      }

      .cls-8 {
        fill: #368bba;
      }

      .cls-9 {
        opacity: .5;
      }

      .cls-10 {
        fill: #2c7193;
      }

      .cls-11 {
        opacity: .6;
      }

      .cls-12 {
        fill: #463b54;
      }

      .cls-13 {
        fill: #524660;
      }

      .cls-14 {
        fill: #70617f;
      }

      .cls-15 {
        opacity: .8;
      }

      .cls-16 {
        fill: #2e2f4d;
      }

      .cls-17 {
        fill: #1e5a72;
      }

      .cls-18 {
        fill: #5eb9f7;
      }

      .cls-19 {
        opacity: .3;
      }

      .cls-20 {
        fill: #aedeff;
      }

      .cls-21 {
        fill: #599e85;
      }

      .cls-22 {
        fill: #ffefe7;
      }

      .cls-23 {
        fill: #e96362;
      }

      .cls-24 {
        fill: #463b56;
      }

      .cls-25 {
        fill: #99d6ff;
      }

      .cls-26 {
        fill: #615370;
      }

      .cls-27 {
        fill: #99dfff;
      }

      .cls-28 {
        fill: #f7d1c1;
      }

      .cls-29 {
        fill: #fb9d7e;
      }

      .cls-30 {
        fill: #d47c74;
      }

      .cls-31 {
        fill: #4f1d30;
      }

      .cls-32 {
        fill: #f77c7c;
      }

      .cls-33 {
        fill: #f8cd9e;
      }
    </style>
  </defs>
  <g id="Layer_1-2" data-name="Layer 1">
    <g>
      <g>
        <g class="cls-11">
          <path class="cls-20" d="M2226.92,1013.2c0,166.11-43.87,322.92-121.69,461.24-13.34,23.85-27.75,47.13-43.1,69.85-8.68,12.85-17.7,25.51-26.98,37.94H195.18c-9.28-12.42-18.3-25.08-26.98-37.94C63.7,1389.9,3.41,1207.95,3.41,1013.2,3.41,453.66,501.17,0,1115.16,0s1111.76,453.66,1111.76,1013.2Z"/>
        </g>
        <g>
          <path class="cls-4" d="M410.55,363.64c0,5.69,2.15,10.85,5.65,14.72h311.91l2.87-1.95c2.88-1.95,5.43-4.43,7.23-7.46,1.19-2,2.01-4.03,2.51-6.11,3.24-13.31-5.86-26.92-19.22-27.64-5.89-.32-11.26,1.87-15.26,5.58,.03-.62,.09-1.24,.09-1.87,0-18.38-14.52-33.28-32.44-33.28-15.72,0-28.83,11.47-31.81,26.71-.41,2.12-.63,4.32-.63,6.57,0,1.06,.06,2.1,.15,3.13h-.15c-6.07,0-11.53,2.63-15.38,6.84h-.01c-.16-3.64-1.2-7.05-2.91-10-3.66-6.34-10.38-10.59-18.08-10.59-8.95,0-16.58,5.75-19.62,13.84-3.85-4.27-9.34-6.97-15.45-6.97-5.08,0-9.74,1.85-13.38,4.93-1.76-15.17-14.32-26.94-29.59-26.94-4.98,0-9.66,1.27-13.79,3.48-7.43-17.09-24.8-28.64-44.58-26.86-25.23,2.27-43.65,26.44-39.94,52.14,.01,.11,.03,.23,.05,.33-8.02,1.1-14.61,6.84-17.12,14.52-.72,2.16-1.1,4.46-1.1,6.87Z"/>
          <path class="cls-4" d="M1739.04,303.17c0,7.42-2.81,14.16-7.37,19.21h-407.17l-3.75-2.54c-3.76-2.55-7.09-5.78-9.43-9.73-1.55-2.61-2.62-5.26-3.28-7.98-4.23-17.38,7.65-35.14,25.09-36.08,7.69-.42,14.7,2.44,19.92,7.29-.05-.81-.12-1.61-.12-2.44,0-24,18.96-43.44,42.35-43.44,20.52,0,37.64,14.98,41.52,34.87,.54,2.77,.82,5.64,.82,8.57,0,1.38-.07,2.74-.2,4.09h.2c7.92,0,15.05,3.43,20.08,8.93l.02,.02c.21-4.76,1.57-9.22,3.8-13.08,4.77-8.28,13.55-13.82,23.6-13.82,11.69,0,21.65,7.51,25.61,18.06,5.03-5.57,12.19-9.09,20.17-9.09,6.63,0,12.72,2.42,17.46,6.43,2.3-19.81,18.69-35.17,38.62-35.17,6.5,0,12.61,1.66,18,4.54,9.7-22.31,32.37-37.39,58.19-35.06,32.94,2.97,56.99,34.52,52.13,68.07-.02,.15-.04,.3-.06,.44,10.47,1.44,19.07,8.93,22.34,18.95,.94,2.82,1.44,5.82,1.44,8.97Z"/>
          <path class="cls-4" d="M871.63,165.9c0,5.29,.87,10.37,2.49,15.13h4.64v.21l44.57-.03h.95l34.55-.03c.05,.06,.1,.1,.15,.14,.3,.3,.62,.58,.93,.82,.12-.27,.22-.55,.3-.82,.01-.04,.03-.1,.04-.14l88.14-.1h13.33l39.83-.03,21.7-.03h.03l47.74-.03,68.3-.06h.19s.12,0,.24,.01c1.77,.04,11.38,.04,12-.01h.3l113.06-.1,24.68-.03h.03c.05,0,.11-.01,.16-.01,.49,.07,2.81,.08,5.88,.04,7.18-.08,18.41-.38,19.59-.48,0,0,15.91-11.62,15.3-34.14-.54-19.53-17.38-33.64-35.86-33.64-3.77,0-7.37,.66-10.75,1.84,.42-2.58,.69-5.22,.69-7.92,0-26.21-20.71-47.47-46.26-47.47-11.19,0-21.45,4.08-29.45,10.86-12.49-22.75-36.24-38.12-63.49-38.12-34.78,0-63.84,24.99-71.07,58.43-.77,3.52-1.3,7.13-1.55,10.81,0,0-.01-.01-.03-.01-.51-.36-1.03-.7-1.55-1.03-7.07-4.5-15.38-7.09-24.32-7.09-20.99,0-38.73,14.34-44.36,34-5.74-4.82-13.1-7.72-21.13-7.72-.28,0-.55,0-.82,.03-4.03,.08-7.87,.92-11.41,2.33-1.96-14.67-8.46-27.86-18.02-38.01-12.07-12.85-29.03-20.84-47.81-20.84-34.45,0-62.77,26.93-66.08,61.37-6.1-3.12-12.98-4.88-20.26-4.88-25.17,0-45.57,20.91-45.57,46.73Z"/>
          <g class="cls-1">
            <path class="cls-4" d="M1310.29,480.7c0,9.73,3.89,18.57,10.2,25.19h563.61l5.19-3.33c5.2-3.34,9.81-7.58,13.06-12.76,2.15-3.43,3.62-6.89,4.53-10.46,5.86-22.78-10.6-46.06-34.73-47.3-10.65-.55-20.35,3.2-27.57,9.55,.06-1.06,.16-2.11,.16-3.2,0-31.46-26.24-56.95-58.62-56.95-28.4,0-52.09,19.64-57.48,45.71-.74,3.63-1.14,7.39-1.14,11.24,0,1.81,.1,3.6,.28,5.36h-.28c-10.96,0-20.83,4.5-27.8,11.7l-.03,.02c-.29-6.25-2.17-12.09-5.27-17.15-6.6-10.85-18.75-18.12-32.67-18.12-16.18,0-29.97,9.84-35.45,23.68-6.96-7.3-16.87-11.92-27.92-11.92-9.18,0-17.6,3.17-24.17,8.43-3.18-25.97-25.88-46.11-53.46-46.11-8.99,0-17.45,2.18-24.92,5.95-13.42-29.25-44.81-49.02-80.55-45.97-45.59,3.89-78.88,45.25-72.16,89.24,.03,.19,.05,.39,.09,.57-14.49,1.88-26.4,11.7-30.93,24.85-1.3,3.69-2,7.63-2,11.76Z"/>
          </g>
          <g class="cls-1">
            <path class="cls-4" d="M577.1,242.12c0,5.61,2.12,10.7,5.57,14.51h307.59l2.83-1.92c2.84-1.93,5.36-4.37,7.13-7.35,1.17-1.97,1.98-3.97,2.47-6.03,3.2-13.13-5.78-26.54-18.95-27.26-5.81-.31-11.1,1.84-15.05,5.5,.03-.61,.09-1.22,.09-1.84,0-18.13-14.32-32.82-31.99-32.82-15.5,0-28.43,11.31-31.37,26.34-.41,2.09-.62,4.26-.62,6.48,0,1.04,.06,2.07,.15,3.09h-.15c-5.98,0-11.37,2.59-15.17,6.74h-.01c-.16-3.58-1.19-6.95-2.87-9.87-3.6-6.25-10.23-10.44-17.83-10.44-8.83,0-16.36,5.67-19.35,13.65-3.8-4.21-9.21-6.87-15.24-6.87-5.01,0-9.61,1.83-13.19,4.86-1.74-14.96-14.12-26.57-29.17-26.57-4.91,0-9.52,1.25-13.6,3.43-7.33-16.85-24.45-28.24-43.96-26.49-24.88,2.24-43.05,26.07-39.38,51.42,.01,.11,.03,.22,.05,.33-7.91,1.09-14.41,6.74-16.88,14.32-.71,2.13-1.09,4.4-1.09,6.78Z"/>
          </g>
          <g class="cls-1">
            <path class="cls-4" d="M1003.98,275.41c0,3.98,1.5,7.58,3.95,10.29h218.02l2.01-1.36c2.01-1.36,3.8-3.1,5.05-5.21,.83-1.4,1.4-2.81,1.75-4.27,2.27-9.31-4.1-18.81-13.43-19.32-4.12-.22-7.87,1.31-10.66,3.9,.02-.43,.06-.86,.06-1.31,0-12.85-10.15-23.26-22.68-23.26-10.99,0-20.15,8.02-22.23,18.67-.29,1.48-.44,3.02-.44,4.59,0,.74,.04,1.47,.11,2.19h-.11c-4.24,0-8.06,1.84-10.75,4.78h-.01c-.11-2.54-.84-4.93-2.04-6.99-2.56-4.43-7.25-7.4-12.64-7.4-6.26,0-11.59,4.02-13.71,9.67-2.69-2.98-6.53-4.87-10.8-4.87-3.55,0-6.81,1.3-9.35,3.44-1.23-10.61-10.01-18.83-20.68-18.83-3.48,0-6.75,.89-9.64,2.43-5.19-11.95-17.33-20.02-31.16-18.77-17.64,1.59-30.51,18.48-27.91,36.45,0,.08,.02,.16,.03,.23-5.6,.77-10.21,4.78-11.96,10.15-.5,1.51-.77,3.12-.77,4.8Z"/>
          </g>
          <g class="cls-1">
            <path class="cls-4" d="M362.88,454.87c0,2.66,1.01,5.08,2.65,6.9h146.12l1.35-.91c1.35-.91,2.54-2.08,3.39-3.49,.56-.94,.94-1.89,1.18-2.86,1.52-6.24-2.75-12.61-9-12.95-2.76-.15-5.27,.87-7.15,2.61,.02-.29,.04-.58,.04-.87,0-8.61-6.8-15.59-15.2-15.59-7.36,0-13.51,5.37-14.9,12.51-.19,.99-.29,2.02-.29,3.08,0,.5,.03,.98,.07,1.47h-.07c-2.84,0-5.4,1.23-7.21,3.2h0c-.08-1.7-.56-3.3-1.37-4.69-1.71-2.97-4.86-4.96-8.47-4.96-4.19,0-7.77,2.69-9.19,6.48-1.8-2-4.37-3.26-7.24-3.26-2.38,0-4.56,.87-6.27,2.31-.83-7.11-6.71-12.62-13.86-12.62-2.33,0-4.52,.6-6.46,1.63-3.48-8.01-11.62-13.42-20.88-12.58-11.82,1.06-20.45,12.39-18.71,24.43,0,.05,.01,.11,.02,.16-3.76,.52-6.84,3.2-8.02,6.8-.34,1.01-.52,2.09-.52,3.22Z"/>
          </g>
        </g>
      </g>
      <g>
        <g>
          <path class="cls-3" d="M1129.18,1502.23c0,11.34-1.79,22.27-5.04,32.51-3.82,11.87-9.63,22.84-17.11,32.51h-169.06c-7.48-9.67-13.29-20.64-17.11-32.51-3.25-10.24-5.04-21.17-5.04-32.51,0-58.93,47.75-106.68,106.68-106.68,49.46,0,91.07,33.65,103.1,79.33,2.36,8.74,3.58,17.88,3.58,27.35Z"/>
          <g>
            <path class="cls-4" d="M1026.57,1440.74v126.51h-8.13v-126.51c0-2.24,1.83-4.02,4.06-4.02s4.06,1.79,4.06,4.02Z"/>
            <path class="cls-4" d="M1058.35,1486.42l-31.78,24.71-8.13,6.3v-10.28l8.13-6.34,26.78-20.81c1.79-1.38,4.31-1.06,5.69,.69,1.38,1.79,1.06,4.35-.69,5.73Z"/>
            <path class="cls-4" d="M1026.57,1469.8v10.32l-8.13-6.3-15.61-12.15c-1.75-1.38-2.07-3.94-.69-5.73,1.38-1.75,3.9-2.07,5.69-.69l10.61,8.25,8.13,6.3Z"/>
            <path class="cls-4" d="M1026.57,1533.48v10.32l-8.13-6.34-33.65-26.17c-1.79-1.38-2.11-3.9-.73-5.69,1.38-1.79,3.94-2.11,5.69-.73l28.69,22.31,8.13,6.3Z"/>
          </g>
        </g>
        <g>
          <path class="cls-3" d="M2228.52,1497.01c0,13.09-2.06,25.71-5.82,37.53-4.41,13.7-11.12,26.36-19.75,37.53h-195.14c-8.63-11.16-15.34-23.83-19.75-37.53-3.75-11.82-5.82-24.44-5.82-37.53,0-68.02,55.12-123.13,123.13-123.13,57.09,0,105.12,38.84,119,91.56,2.72,10.09,4.13,20.64,4.13,31.57Z"/>
          <g>
            <path class="cls-4" d="M2110.07,1426.04v146.02h-9.38v-146.02c0-2.58,2.11-4.64,4.69-4.64s4.69,2.06,4.69,4.64Z"/>
            <path class="cls-4" d="M2146.76,1478.76l-36.68,28.52-9.38,7.27v-11.87l9.38-7.32,30.91-24.02c2.06-1.6,4.97-1.22,6.57,.8,1.59,2.06,1.22,5.02-.8,6.61Z"/>
            <path class="cls-4" d="M2110.07,1459.58v11.91l-9.38-7.27-18.01-14.03c-2.02-1.59-2.39-4.55-.8-6.61,1.59-2.02,4.5-2.39,6.57-.8l12.24,9.52,9.38,7.27Z"/>
            <path class="cls-4" d="M2110.07,1533.08v11.91l-9.38-7.32-38.84-30.21c-2.06-1.59-2.44-4.5-.84-6.57,1.59-2.06,4.55-2.44,6.57-.84l33.12,25.75,9.38,7.27Z"/>
          </g>
          <g>
            <path class="cls-21" d="M2033.47,1536.88c0,13.18-4.27,25.33-11.54,35.18h-95.79c-7.27-9.85-11.54-22-11.54-35.18,0-.8,0-1.6,.09-2.35,1.17-31.76,27.3-57.09,59.34-57.09s58.17,25.33,59.34,57.09c.09,.75,.09,1.55,.09,2.35Z"/>
            <circle class="cls-21" cx="1947.07" cy="1440.72" r="22.28"/>
          </g>
        </g>
        <g>
          <path class="cls-21" d="M306.85,1474.34c0,16.31-2.57,32.03-7.25,46.76-5.49,17.07-13.85,32.85-24.61,46.76H31.85c-10.75-13.91-19.11-29.69-24.61-46.76-4.68-14.73-7.25-30.45-7.25-46.76,0-84.75,68.68-153.43,153.43-153.43,71.13,0,130.98,48.4,148.28,114.09,3.39,12.57,5.14,25.72,5.14,39.34Z"/>
          <g>
            <path class="cls-4" d="M159.27,1385.91v181.95h-11.69v-181.95c0-3.21,2.63-5.79,5.84-5.79s5.84,2.57,5.84,5.79Z"/>
            <path class="cls-4" d="M204.98,1451.6l-45.71,35.54-11.69,9.06v-14.79l11.69-9.12,38.52-29.93c2.57-1.99,6.2-1.52,8.18,.99,1.99,2.57,1.52,6.25-.99,8.24Z"/>
            <path class="cls-4" d="M159.27,1427.7v14.85l-11.69-9.06-22.44-17.48c-2.51-1.99-2.98-5.67-.99-8.24,1.99-2.51,5.61-2.98,8.18-.99l15.25,11.86,11.69,9.06Z"/>
            <path class="cls-4" d="M159.27,1519.29v14.85l-11.69-9.12-48.39-37.64c-2.57-1.99-3.04-5.61-1.05-8.18,1.99-2.57,5.67-3.04,8.18-1.05l41.26,32.09,11.69,9.06Z"/>
          </g>
        </g>
        <path class="cls-21" d="M2230.33,1583.6c0,5.16-2.11,9.85-5.49,13.27-3.38,3.38-8.07,5.49-13.27,5.49H31.9c-10.37,0-18.76-8.4-18.76-18.76,0-5.16,2.11-9.85,5.49-13.27,3.42-3.38,8.11-5.49,13.27-5.49H2211.57c10.37,0,18.76,8.4,18.76,18.76Z"/>
      </g>
      <g>
        <g class="cls-15">
          <path class="cls-27" d="M438.93,685.04c-110.36,0-200.16,89.8-200.16,200.18s89.8,200.13,200.16,200.13,200.18-89.8,200.18-200.13-89.8-200.18-200.18-200.18Zm-.03,364c-90.33,0-163.8-73.51-163.8-163.87s73.46-163.82,163.8-163.82,163.87,73.49,163.87,163.82-73.51,163.87-163.87,163.87Zm.03-364c-110.36,0-200.16,89.8-200.16,200.18s89.8,200.13,200.16,200.13,200.18-89.8,200.18-200.13-89.8-200.18-200.18-200.18Zm-.03,364c-90.33,0-163.8-73.51-163.8-163.87s73.46-163.82,163.8-163.82,163.87,73.49,163.87,163.82-73.51,163.87-163.87,163.87Zm271.64-163.87c0-10.03-.56-19.92-1.64-29.69l53.77-29.85c-3.21-17.41-7.74-34.36-13.59-50.72l-61.46,1c-8.03-18.28-18.05-35.54-29.72-51.44l31.56-52.69c-11.41-13.31-23.8-25.77-37.18-37.13l-52.64,31.59c-15.95-11.72-33.15-21.69-51.46-29.77l1.03-61.41c-16.36-5.85-33.31-10.44-50.74-13.59l-29.85,53.74c-9.74-1.08-19.64-1.62-29.72-1.62s-19.92,.54-29.69,1.62l-29.85-53.74c-17.44,3.15-34.38,7.74-50.74,13.59l1.05,61.41c-18.28,8.08-35.54,18.05-51.46,29.77l-52.67-31.59c-13.36,11.36-25.77,23.82-37.15,37.13l31.56,52.69c-11.69,15.9-21.67,33.15-29.74,51.44l-61.44-1c-5.82,16.36-10.38,33.31-13.56,50.72l53.77,29.85c-1.08,9.77-1.64,19.67-1.64,29.69s.56,19.97,1.64,29.72l-53.77,29.87c3.18,17.41,7.74,34.36,13.56,50.72l61.44-1c8.08,18.28,18.05,35.51,29.74,51.44l-31.56,52.67c11.38,13.33,23.8,25.77,37.15,37.18l52.67-31.62c15.92,11.72,33.18,21.72,51.46,29.77l-1.05,61.44c16.36,5.82,33.31,10.38,50.74,13.59l29.85-53.77c9.77,1.08,19.69,1.64,29.69,1.64s19.97-.56,29.72-1.64l29.85,53.77c17.44-3.18,34.39-7.77,50.74-13.59l-1.03-61.44c18.31-8.05,35.51-18.05,51.46-29.77l52.64,31.62c13.38-11.41,25.77-23.85,37.18-37.18l-31.56-52.67c11.67-15.92,21.69-33.15,29.72-51.44l61.46,1c5.85-16.36,10.38-33.31,13.59-50.72l-53.77-29.87c1.08-9.74,1.64-19.64,1.64-29.72Zm-271.62,213c-117.44,0-212.98-95.54-212.98-212.95s95.54-213,212.98-213,213,95.54,213,213-95.57,212.95-213,212.95Zm0-413.13c-110.36,0-200.16,89.8-200.16,200.18s89.8,200.13,200.16,200.13,200.18-89.8,200.18-200.13-89.8-200.18-200.18-200.18Zm-.03,364c-90.33,0-163.8-73.51-163.8-163.87s73.46-163.82,163.8-163.82,163.87,73.49,163.87,163.82-73.51,163.87-163.87,163.87Zm.03-364c-110.36,0-200.16,89.8-200.16,200.18s89.8,200.13,200.16,200.13,200.18-89.8,200.18-200.13-89.8-200.18-200.18-200.18Zm-.03,364c-90.33,0-163.8-73.51-163.8-163.87s73.46-163.82,163.8-163.82,163.87,73.49,163.87,163.82-73.51,163.87-163.87,163.87Zm.03-364c-110.36,0-200.16,89.8-200.16,200.18s89.8,200.13,200.16,200.13,200.18-89.8,200.18-200.13-89.8-200.18-200.18-200.18Zm-.03,364c-90.33,0-163.8-73.51-163.8-163.87s73.46-163.82,163.8-163.82,163.87,73.49,163.87,163.82-73.51,163.87-163.87,163.87Z"/>
        </g>
        <g class="cls-15">
          <path class="cls-27" d="M1120.32,402.27c-40.82,0-74.06,33.21-74.06,74.06s33.24,74.06,74.06,74.06,74.08-33.21,74.08-74.06-33.24-74.06-74.08-74.06Zm0,134.95c-33.57,0-60.89-27.32-60.89-60.89s27.32-60.91,60.89-60.91,60.91,27.32,60.91,60.91-27.32,60.89-60.91,60.89Zm0-134.95c-40.82,0-74.06,33.21-74.06,74.06s33.24,74.06,74.06,74.06,74.08-33.21,74.08-74.06-33.24-74.06-74.08-74.06Zm0,134.95c-33.57,0-60.89-27.32-60.89-60.89s27.32-60.91,60.89-60.91,60.91,27.32,60.91,60.91-27.32,60.89-60.91,60.89Zm100.7-60.89c0-3.74-.2-7.41-.61-11.02l19.94-11.07c-1.19-6.45-2.88-12.74-5.03-18.81l-22.8,.38c-2.98-6.77-6.67-13.17-11.02-19.08l11.73-19.54c-4.25-4.93-8.85-9.55-13.8-13.75l-19.51,11.7c-5.91-4.35-12.31-8.04-19.08-11.02l.38-22.77c-6.07-2.17-12.36-3.87-18.81-5.06l-11.07,19.94c-3.61-.4-7.28-.61-11.02-.61s-7.38,.2-11.02,.61l-11.07-19.94c-6.45,1.19-12.74,2.88-18.81,5.06l.4,22.77c-6.8,2.98-13.19,6.67-19.08,11.02l-19.54-11.7c-4.95,4.2-9.55,8.82-13.78,13.75l11.7,19.54c-4.32,5.91-8.04,12.31-11.02,19.08l-22.77-.38c-2.17,6.07-3.87,12.36-5.03,18.81l19.92,11.07c-.38,3.61-.61,7.28-.61,11.02s.23,7.38,.61,11l-19.92,11.1c1.16,6.45,2.86,12.74,5.03,18.81l22.77-.38c2.98,6.77,6.7,13.17,11.02,19.06l-11.7,19.54c4.22,4.95,8.82,9.55,13.78,13.78l19.54-11.7c5.89,4.32,12.28,8.04,19.08,11.02l-.4,22.8c6.07,2.15,12.36,3.84,18.81,5.03l11.07-19.94c3.64,.4,7.3,.61,11.02,.61s7.41-.2,11.02-.61l11.07,19.94c6.45-1.19,12.74-2.88,18.81-5.03l-.38-22.8c6.77-2.98,13.17-6.7,19.08-11.02l19.51,11.7c4.95-4.22,9.55-8.82,13.8-13.78l-11.73-19.54c4.35-5.89,8.04-12.28,11.02-19.06l22.8,.38c2.15-6.07,3.84-12.36,5.03-18.81l-19.94-11.1c.4-3.61,.61-7.28,.61-11Zm-100.7,79.11c-43.63,0-79.11-35.49-79.11-79.11s35.49-79.11,79.11-79.11,79.14,35.49,79.14,79.11-35.51,79.11-79.14,79.11Zm0-153.17c-40.82,0-74.06,33.21-74.06,74.06s33.24,74.06,74.06,74.06,74.08-33.21,74.08-74.06-33.24-74.06-74.08-74.06Zm0,134.95c-33.57,0-60.89-27.32-60.89-60.89s27.32-60.91,60.89-60.91,60.91,27.32,60.91,60.91-27.32,60.89-60.91,60.89Zm0-134.95c-40.82,0-74.06,33.21-74.06,74.06s33.24,74.06,74.06,74.06,74.08-33.21,74.08-74.06-33.24-74.06-74.08-74.06Zm0,134.95c-33.57,0-60.89-27.32-60.89-60.89s27.32-60.91,60.89-60.91,60.91,27.32,60.91,60.91-27.32,60.89-60.91,60.89Zm0-134.95c-40.82,0-74.06,33.21-74.06,74.06s33.24,74.06,74.06,74.06,74.08-33.21,74.08-74.06-33.24-74.06-74.08-74.06Zm0,134.95c-33.57,0-60.89-27.32-60.89-60.89s27.32-60.91,60.89-60.91,60.91,27.32,60.91,60.91-27.32,60.89-60.91,60.89Z"/>
        </g>
        <g class="cls-15">
          <path class="cls-27" d="M1103.72,1014.13c-69.43,0-125.95,56.52-125.95,125.98s56.52,125.92,125.95,125.92,125.98-56.48,125.98-125.92-56.52-125.98-125.98-125.98Zm0,233.69c-59.38,0-107.71-48.33-107.71-107.74s48.33-107.71,107.71-107.71,107.74,48.33,107.74,107.71-48.33,107.74-107.74,107.74Zm0-233.69c-69.43,0-125.95,56.52-125.95,125.98s56.52,125.92,125.95,125.92,125.98-56.48,125.98-125.92-56.52-125.98-125.98-125.98Zm0,233.69c-59.38,0-107.71-48.33-107.71-107.74s48.33-107.71,107.71-107.71,107.74,48.33,107.74,107.71-48.33,107.74-107.74,107.74Zm174.38-107.74c0-6.46-.37-12.78-1.07-19.07l34.52-19.14c-2.03-11.22-4.96-22.07-8.72-32.59l-39.44,.67c-5.16-11.75-11.58-22.83-19.07-33.02l20.27-33.85c-7.32-8.55-15.28-16.54-23.87-23.83l-33.82,20.27c-10.25-7.49-21.3-13.91-33.02-19.11l.63-39.41c-10.48-3.76-21.37-6.69-32.55-8.72l-19.17,34.48c-6.26-.67-12.62-1.03-19.07-1.03s-12.81,.37-19.07,1.03l-19.17-34.48c-11.18,2.03-22.07,4.96-32.55,8.72l.67,39.41c-11.75,5.19-22.8,11.62-33.05,19.11l-33.78-20.27c-8.59,7.29-16.54,15.28-23.87,23.83l20.27,33.85c-7.52,10.19-13.91,21.27-19.11,33.02l-39.41-.67c-3.76,10.52-6.69,21.37-8.72,32.59l34.52,19.14c-.7,6.29-1.07,12.61-1.07,19.07s.37,12.81,1.07,19.07l-34.52,19.17c2.03,11.18,4.96,22.07,8.72,32.55l39.41-.63c5.19,11.75,11.58,22.8,19.11,33.02l-20.27,33.82c7.32,8.55,15.28,16.54,23.87,23.87l33.78-20.3c10.25,7.52,21.3,13.95,33.05,19.11l-.67,39.44c10.48,3.73,21.37,6.66,32.55,8.72l19.17-34.52c6.26,.7,12.65,1.07,19.07,1.07s12.81-.37,19.07-1.07l19.17,34.52c11.18-2.03,22.07-4.99,32.55-8.72l-.63-39.44c11.72-5.16,22.77-11.58,33.02-19.11l33.82,20.3c8.59-7.32,16.54-15.31,23.87-23.87l-20.27-33.82c7.49-10.22,13.91-21.27,19.07-33.02l39.44,.63c3.76-10.48,6.69-21.37,8.72-32.55l-34.52-19.17c.7-6.26,1.07-12.61,1.07-19.07Zm-174.38,139.26c-76.79,0-139.26-62.44-139.26-139.23s62.48-139.3,139.26-139.3,139.3,62.48,139.3,139.3-62.48,139.23-139.3,139.23Zm0-265.22c-69.43,0-125.95,56.52-125.95,125.98s56.52,125.92,125.95,125.92,125.98-56.48,125.98-125.92-56.52-125.98-125.98-125.98Zm0,233.69c-59.38,0-107.71-48.33-107.71-107.74s48.33-107.71,107.71-107.71,107.74,48.33,107.74,107.71-48.33,107.74-107.74,107.74Zm0-233.69c-69.43,0-125.95,56.52-125.95,125.98s56.52,125.92,125.95,125.92,125.98-56.48,125.98-125.92-56.52-125.98-125.98-125.98Zm0,233.69c-59.38,0-107.71-48.33-107.71-107.74s48.33-107.71,107.71-107.71,107.74,48.33,107.74,107.71-48.33,107.74-107.74,107.74Zm0-233.69c-69.43,0-125.95,56.52-125.95,125.98s56.52,125.92,125.95,125.92,125.98-56.48,125.98-125.92-56.52-125.98-125.98-125.98Zm0,233.69c-59.38,0-107.71-48.33-107.71-107.74s48.33-107.71,107.71-107.71,107.74,48.33,107.74,107.71-48.33,107.74-107.74,107.74Z"/>
        </g>
        <g class="cls-15">
          <path class="cls-27" d="M1827.78,752.09c-102.01,0-185.03,82.98-185.03,184.99s83.02,184.99,185.03,184.99,185.03-82.98,185.03-184.99-83.02-184.99-185.03-184.99Zm-.04,338.62c-84.66,0-153.59-68.93-153.59-153.63s68.93-153.63,153.59-153.63,153.62,68.93,153.62,153.63-68.93,153.63-153.62,153.63Zm.04-338.62c-102.01,0-185.03,82.98-185.03,184.99s83.02,184.99,185.03,184.99,185.03-82.98,185.03-184.99-83.02-184.99-185.03-184.99Zm-.04,338.62c-84.66,0-153.59-68.93-153.59-153.63s68.93-153.63,153.59-153.63,153.62,68.93,153.62,153.63-68.93,153.63-153.62,153.63Zm252.7-153.63c0-9.34-.54-18.56-1.54-27.65l50.04-27.76c-2.97-16.2-7.23-31.98-12.66-47.18l-57.16,.93c-7.48-17.03-16.78-33.05-27.65-47.86l29.37-49c-10.62-12.41-22.14-24-34.59-34.55l-49,29.37c-14.81-10.87-30.83-20.17-47.82-27.68l.93-57.12c-15.2-5.44-30.98-9.69-47.18-12.63l-27.79,49.97c-9.05-1-18.28-1.5-27.65-1.5s-18.53,.5-27.61,1.5l-27.79-49.97c-16.2,2.93-31.98,7.19-47.18,12.63l.97,57.12c-16.99,7.51-33.05,16.81-47.89,27.68l-48.97-29.37c-12.41,10.55-23.96,22.14-34.55,34.55l29.37,49c-10.91,14.81-20.17,30.83-27.68,47.86l-57.16-.93c-5.4,15.2-9.66,30.98-12.63,47.18l50.04,27.76c-1,9.08-1.54,18.31-1.54,27.65s.54,18.56,1.54,27.61l-50.04,27.79c2.97,16.2,7.23,31.98,12.63,47.18l57.16-.93c7.51,17.03,16.78,33.05,27.68,47.86l-29.37,49c10.59,12.41,22.14,23.96,34.55,34.59l48.97-29.4c14.84,10.87,30.9,20.17,47.89,27.68l-.97,57.16c15.2,5.4,30.98,9.62,47.18,12.63l27.79-50c9.09,1,18.31,1.5,27.61,1.5s18.6-.5,27.65-1.5l27.79,50c16.2-2.97,31.98-7.23,47.18-12.63l-.93-57.16c16.99-7.51,33.01-16.81,47.82-27.68l49,29.4c12.45-10.62,23.96-22.18,34.59-34.59l-29.37-49c10.87-14.81,20.17-30.83,27.65-47.86l57.16,.93c5.44-15.2,9.69-30.98,12.66-47.18l-50.04-27.79c1-9.05,1.54-18.28,1.54-27.61Zm-252.67,199.3c-109.92,0-199.34-89.39-199.34-199.3s89.42-199.3,199.34-199.3,199.34,89.42,199.34,199.3-89.42,199.3-199.34,199.3Zm0-384.3c-102.01,0-185.03,82.98-185.03,184.99s83.02,184.99,185.03,184.99,185.03-82.98,185.03-184.99-83.02-184.99-185.03-184.99Zm-.04,338.62c-84.66,0-153.59-68.93-153.59-153.63s68.93-153.63,153.59-153.63,153.62,68.93,153.62,153.63-68.93,153.63-153.62,153.63Zm.04-338.62c-102.01,0-185.03,82.98-185.03,184.99s83.02,184.99,185.03,184.99,185.03-82.98,185.03-184.99-83.02-184.99-185.03-184.99Zm-.04,338.62c-84.66,0-153.59-68.93-153.59-153.63s68.93-153.63,153.59-153.63,153.62,68.93,153.62,153.63-68.93,153.63-153.62,153.63Zm.04-338.62c-102.01,0-185.03,82.98-185.03,184.99s83.02,184.99,185.03,184.99,185.03-82.98,185.03-184.99-83.02-184.99-185.03-184.99Zm-.04,338.62c-84.66,0-153.59-68.93-153.59-153.63s68.93-153.63,153.59-153.63,153.62,68.93,153.62,153.63-68.93,153.63-153.62,153.63Z"/>
        </g>
        <g>
          <rect class="cls-2" x="545.94" y="666.71" width="1138.44" height="361.09" rx="27.58" ry="27.58"/>
          <rect class="cls-18" x="546.78" y="715.75" width="1136.77" height="7.24"/>
          <rect class="cls-18" x="546.78" y="901.31" width="1136.77" height="7.24"/>
          <g>
            <circle class="cls-23" cx="601.46" cy="869.82" r="15.67"/>
            <circle class="cls-32" cx="663.52" cy="869.82" r="15.67"/>
            <circle class="cls-29" cx="725.58" cy="869.82" r="15.67"/>
            <circle class="cls-33" cx="787.65" cy="869.82" r="15.67"/>
            <circle class="cls-3" cx="849.71" cy="869.82" r="15.67"/>
          </g>
          <rect class="cls-26" x="1482.87" y="712.47" width="70.21" height="239.47" transform="translate(2350.19 -685.77) rotate(90)"/>
          <rect class="cls-6" x="1405.77" y="804.62" width="224.43" height="55.17"/>
          <g>
            <polygon class="cls-4" points="1450.17 804.62 1407.62 859.79 1405.77 859.79 1405.77 836.55 1430.39 804.62 1450.17 804.62"/>
            <polygon class="cls-4" points="1616.48 804.62 1573.92 859.79 1593.71 859.79 1630.19 812.47 1630.19 804.62 1616.48 804.62"/>
            <polygon class="cls-4" points="1545.99 804.62 1503.46 859.79 1455.11 859.79 1497.64 804.62 1545.99 804.62"/>
          </g>
          <g>
            <rect class="cls-6" x="586.69" y="932.09" width="1056.94" height="20.06"/>
            <g>
              <rect class="cls-6" x="586.69" y="979.74" width="306.69" height="20.06"/>
              <rect class="cls-6" x="1336.94" y="979.74" width="306.69" height="20.06"/>
              <rect class="cls-6" x="961.82" y="979.74" width="306.69" height="20.06"/>
            </g>
          </g>
          <g class="cls-19">
            <path class="cls-8" d="M648.75,1027.8h-75.23c-15.22,0-27.58-12.34-27.58-27.58v-305.93c0-15.25,12.36-27.58,27.58-27.58h75.23c-15.22,0-27.58,12.34-27.58,27.58v305.93c0,15.25,12.36,27.58,27.58,27.58Z"/>
          </g>
        </g>
        <g>
          <path class="cls-32" d="M1771.82,449.6c-27.78,83.68-118.11,128.98-201.79,101.2-83.66-27.77-128.98-118.11-101.2-201.79,19.76-59.52,71.19-99.64,129.35-107.81l-44.73,134.74-.94,.84,14.41,70.01,67.82,22.51,53.41-47.49-.25-1.2,44.74-134.78c41.72,41.35,58.94,104.25,39.18,163.75Z"/>
          <path class="cls-32" d="M1326.63,666.73h-27.89c20.55-62.84,38.87-95.59,38.87-95.59,0,0-6.07,33.79-10.99,95.59Z"/>
          <path class="cls-32" d="M1422.18,1275.26c-137.23-26.18-173.6-129.28-179.25-247.66h85.53l1.06-.02c11.46,83.33,60.86,93.76,86.81,96.35,133.6,13.34,131.73-438.03,129.95-583.19-.3-25.75-.8-41.01-.8-41.01l157.84,4.78s1.21,10.64,2.84,29.37c12.5,145.33,38.04,802.8-283.98,741.37Z"/>
        </g>
        <g>
          <path class="cls-23" d="M721.65,1257.07h-124.33c-14.76,0-26.77-12.01-26.77-26.77v-46.05c0-14.76,12.01-26.77,26.77-26.77h124.33c14.76,0,26.77,12.01,26.77,26.77v46.05c0,14.76-12.01,26.77-26.77,26.77Zm-124.33-76.56c-2.06,0-3.74,1.68-3.74,3.74v46.05c0,2.06,1.68,3.74,3.74,3.74h124.33c2.06,0,3.74-1.68,3.74-3.74v-46.05c0-2.06-1.68-3.74-3.74-3.74h-124.33Z"/>
          <path class="cls-32" d="M861.52,1235.97H456.84c0-22.82,18.51-41.33,41.33-41.33h322.01c11.41,0,21.74,4.63,29.23,12.1,7.48,7.49,12.1,17.82,12.1,29.23Z"/>
          <g>
            <path class="cls-23" d="M837.67,1225.89v10.08h-68.28v-10.08c0-5.56,4.52-10.07,10.08-10.07h48.12c5.56,0,10.08,4.5,10.08,10.07Z"/>
            <path class="cls-23" d="M548.97,1225.89v10.08h-68.28v-10.08c0-5.56,4.52-10.07,10.08-10.07h48.12c5.56,0,10.08,4.5,10.08,10.07Z"/>
          </g>
          <polygon class="cls-24" points="861.52 1235.97 828.2 1316.16 862.75 1379.09 456.22 1380.32 485.83 1313.7 456.84 1235.97 861.52 1235.97"/>
          <g>
            <path class="cls-33" d="M753.44,1327.21s3.95-2.76,11.75-1.69c5.86,.8,11.65-1.87,14.59-7l.28-.48c1.94-3.38,6.11-4.78,9.7-3.24l.4,.17c3.69,1.58,5.52,5.72,4.25,9.53-1.91,5.73-3.84,14.23-1.85,21.37,3.37,12.05,18.64,18.83,29.25,28.97,10.61,10.14,14.61,16.13,23.31,37.35l-31.52,6.2s2.88-8.97-15.27-21.27-38.64-26.62-35.63-52.01l-9.27-17.9Z"/>
            <g class="cls-9">
              <path class="cls-29" d="M839.76,1412.49c-8.7-21.22-12.71-27.2-23.31-37.34-10.6-10.14-25.88-16.92-29.24-28.97-2-7.15-.07-15.64,1.85-21.37,1.26-3.81-.57-7.95-4.26-9.54l-.41-.16c-.3-.12-.6-.24-.91-.32,1.91-.88,4.17-.97,6.25-.08l.4,.16c3.69,1.59,5.53,5.73,4.25,9.54-1.92,5.72-3.85,14.22-1.85,21.37,3.37,12.05,18.64,18.83,29.24,28.97,10.6,10.14,14.61,16.12,23.33,37.34l-5.34,.4Z"/>
            </g>
            <path class="cls-33" d="M726.21,1342.95s-4.03,2.63-5.95,10.28c-1.44,5.74-6.07,10.11-11.93,10.93l-.55,.08c-3.87,.54-6.71,3.89-6.62,7.79v.44c.1,4.01,3.26,7.25,7.27,7.5,6.03,.37,14.63,1.74,20.52,6.25,9.93,7.62,10.53,24.32,15.98,37.94,5.46,13.62,9.52,19.57,25.96,35.55l17.5-26.94s-9.39-.67-14.05-22.1-10.3-45.78-34.98-52.44l-13.15-15.28Z"/>
            <g class="cls-9">
              <path class="cls-29" d="M775.1,1453.23l-4.21,6.49c-16.45-15.99-20.51-21.94-25.96-35.55-5.46-13.63-6.06-30.32-15.99-37.94-5.89-4.51-14.48-5.89-20.51-6.26-4.01-.25-7.18-3.48-7.27-7.49v-.43c-.1-3.9,2.75-7.25,6.62-7.8l.56-.07c5.86-.83,10.48-5.19,11.93-10.93,1.92-7.65,5.95-10.29,5.95-10.29l5.2,6.04c-.44,1.03-.82,2.18-1.15,3.5-1.45,5.74-6.07,10.11-11.93,10.93l-.56,.07c-3.87,.55-6.72,3.9-6.62,7.8v.43c.09,4.01,3.26,7.25,7.27,7.49,6.03,.37,14.62,1.75,20.51,6.26,9.93,7.62,10.53,24.31,15.99,37.94,4.73,11.85,8.44,17.89,20.17,29.81Z"/>
            </g>
            <path class="cls-18" d="M761.57,1325.57l-16.95,12.23-17.07,8.21c-8.18,3.94-17.95-.03-21.05-8.55l-16.05-44.08c-1.03-2.83,.24-5.98,2.94-7.31l8.08-3.71,5.6-2.58,7.62,11.76c-3.31,2.81-5.09,7.31-4.16,12.05,1.15,5.86,6.52,10.17,12.5,10.08,1.93-.03,3.73-.49,5.34-1.3l2.82,4.37c.56,.86,1.53,1.28,2.47,1.21,.46-.03,.92-.18,1.33-.47,1.21-.83,1.52-2.46,.74-3.69l-3.11-4.8c2.61-3.19,3.6-7.73,2.02-12.23-1.9-5.44-7.2-8.69-12.93-8.18-.72,.07-1.42,.19-2.08,.37l-7.26-11.85,3.76-2.81,6.91-5.17c2.36-1.82,5.68-1.62,7.79,.49l32.63,32.7c6.66,6.67,5.76,17.74-1.89,23.25Z"/>
            <circle class="cls-6" cx="744.52" cy="1339.95" r="19.51" transform="translate(-654.1 1967.35) rotate(-85.1)"/>
            <polygon class="cls-6" points="707.07 1279.79 714.69 1291.55 701.47 1282.36 707.07 1279.79"/>
            <polygon class="cls-6" points="719.63 1288.96 712.37 1277.11 716.13 1274.3 719.63 1288.96"/>
          </g>
          <path class="cls-23" d="M863.68,1379.09v145.28c0,22.32-18.09,40.41-40.41,40.41H495.71c-21.2,0-38.58-16.32-40.27-37.09h0c-.02-.31-.05-.62-.06-.91-.05-.8-.07-1.6-.07-2.41v-145.28h408.38Z"/>
          <path class="cls-32" d="M863.68,1379.09v124.3c0,22.32-18.09,40.41-40.41,40.41H495.71c-11.6,0-22.06-4.89-29.43-12.71-6.02-6.4-9.98-14.76-10.81-24.02-.11-1.21-.17-2.43-.17-3.68v-124.3h408.38Z"/>
          <g>
            <path class="cls-23" d="M481,1389.17v-10.08h68.28v10.08c0,5.56-4.52,10.07-10.08,10.07h-48.12c-5.56,0-10.08-4.5-10.08-10.07Z"/>
            <path class="cls-23" d="M769.7,1389.17v-10.08h68.28v10.08c0,5.56-4.52,10.07-10.08,10.07h-48.12c-5.56,0-10.08-4.5-10.08-10.07Z"/>
          </g>
        </g>
        <g>
          <path class="cls-33" d="M364.15,1024.64l.12-43.55-80.17-.22-.09,30.98c-2.68,17.97-8.49,34.74-14.7,48.67-15.04,33.69-21.95,70.44-22.05,107.33l-.88,318.23c-.11,41.25,31.57,77.3,72.79,78.65,42.65,1.4,77.73-32.7,77.85-75.07l.9-323.22c.11-37.91-8.41-75.16-23.29-110.03-4.21-9.86-8.02-20.71-10.47-31.76Z"/>
          <polygon class="cls-25" points="341.76 484.42 340.45 484.41 340.45 484.41 340.45 484.41 340.39 484.41 310.63 484.33 310.63 484.53 297.73 543.84 310.15 604.45 309.16 961.74 339.32 961.82 340.31 604.53 353.06 543.99 341.76 484.42"/>
          <g class="cls-9">
            <polygon class="cls-18" points="341.77 484.42 353.06 543.98 340.29 604.54 339.32 961.82 331.12 961.14 332.32 603.3 345.09 542.75 333.8 484.4 341.77 484.42"/>
          </g>
          <path class="cls-33" d="M365.42,988.1l-82.51-.23c-7.31-.02-13.22-5.96-13.2-13.27h0c.02-7.31,5.96-13.22,13.27-13.2l82.51,.23c7.31,.02,13.22,5.96,13.2,13.27h0c-.02,7.31-5.96,13.22-13.27,13.2Z"/>
          <g>
            <path class="cls-29" d="M280.46,1478.25h0c-6.45-.02-11.66-5.26-11.64-11.71l.87-314.47c.02-6.45,5.26-11.66,11.71-11.64h0c6.45,.02,11.66,5.26,11.64,11.71l-.87,314.47c-.02,6.45-5.26,11.66-11.71,11.64Z"/>
            <path class="cls-29" d="M321.72,1478.37h0c-6.45-.02-11.66-5.26-11.64-11.71l.87-314.47c.02-6.45,5.26-11.66,11.71-11.64h0c6.45,.02,11.66,5.26,11.64,11.71l-.87,314.47c-.02,6.45-5.26,11.66-11.71,11.64Z"/>
            <path class="cls-29" d="M362.97,1478.48h0c-6.45-.02-11.66-5.26-11.64-11.71l.87-314.47c.02-6.45,5.26-11.66,11.71-11.64h0c6.45,.02,11.66,5.26,11.64,11.71l-.87,314.47c-.02,6.45-5.26,11.66-11.71,11.64Z"/>
          </g>
        </g>
        <g>
          <g>
            <path class="cls-16" d="M686.52,268.61s-25.82-18.53-27.05-51.04c-1.42-37.83,42.39-39.2,57.03-55.97,5.19-5.94,8.36-10.81,10.3-14.45,1.01-1.89,3.84-1.32,4.05,.81,.53,5.47,.91,12.23,.1,16.16-1.52,7.37-1.97,8.54-1.97,8.54,0,0,2.62-2.86,12.96-18.25,3.01-4.49,4.7-9.25,5.27-12.3,.39-2.12,3.29-2.43,4.11-.44,3.74,9,6.76,17.42,5.59,28.25l-1.29,11.84s3.71-.06,9.39-5.23h0c1.37-1.64,4.05-.51,3.8,1.61-.84,7.18-4.74,18.18-12.32,29.58-13.73,20.65-69.98,60.88-69.98,60.88Z"/>
            <path class="cls-7" d="M741.73,319.13c-.08,.1-.15,.2-.23,.3-3.05,3.88-8.37,8.74-17.11,10.87-2.11,.51-4.44,.85-6.98,1-5.2,.28-11.35-.36-18.56-2.37-8.62-2.41-15.2-6.09-20.14-9.89-3.5-2.67-4.86-6.79-4.21-10.61,.08-.53,.19-1.06,.37-1.57,.76-2.4,2.37-4.57,4.77-6.07,2.96-1.85,5.31-4.21,6.12-6.69,.18-.58,.34-1.52,.48-2.73,.53-5.06,.57-14.97,.27-24.51-.14-4.66-.37-9.25-.64-13.11-.05-.51-.09-1.09-.11-1.73-.23-2.69-.55-6.14-.78-8.62-.19-1.95-.3-3.32-.3-3.32l8.96,4.64,5.98,3.12,9.33,4.85,.33,.18,9.71,5.06,7.74,4.02s-.04,2.03-.12,5.07c-.05,2.79-.13,6.41-.17,10.09-.04,1.72-.06,3.45-.07,5.12-.04,4.11,.06,7.76,.11,9.76,.04,.63,.07,1.09,.06,1.37,.16,4.61,4.31,5.79,8.9,7.89l5.54,6.59-.97,.65,3.71,1.43c.73,3.07,.12,6.44-2.01,9.21Z"/>
            <path class="cls-30" d="M699.39,249.84c-1.55,3.75-9.52,4.12-17.81,.83-8.29-3.29-13.32-8.75-12.21-12.75,1.48-5.31,9.52-4.12,17.81-.83,8.29,3.29,13.75,9,12.21,12.75Z"/>
            <path class="cls-30" d="M707.53,280.34c-14.83-9.47-21.56-35.07-21.56-35.07l40.75,16.68s-.28,11.2-.36,20.27c-2.75,.97-5.67,1.74-8.72,1.54-3.72-.23-7.09-1.5-10.11-3.43"/>
            <path class="cls-7" d="M680.94,227.7c.18,1.21,.4,2.43,.63,3.65,5.73,28.81,25.49,49.39,44.14,45.94,10.46-1.94,18.35-11.01,22.26-23.69,.2-.65,.39-1.31,.57-1.97,.16-.59,.31-1.19,.45-1.8,.48-2.06,.87-4.19,1.14-6.39,.19-1.45,.33-2.94,.42-4.44,.11-1.72,.15-3.48,.13-5.26-.04-4.8-.54-9.79-1.55-14.87-.22-1.09-.48-2.29-.78-3.57-.12-.53-.25-1.07-.39-1.63-.09-.35-.18-.71-.27-1.07-.02-.08-.04-.15-.06-.23-1.37-5.38-3.22-11.36-4.85-15.02-.98,1-8.28,.63-16.48-.17-15.09-1.46-31.63-2.65-39.53,10.29-3.38,5.54-4.53,18.82-5.83,20.23Z"/>
            <path class="cls-30" d="M726.41,244.43l2.41-.57c1.63-.38,2.69-1.79,2.29-3.02l-3.04-9.32c-.35-1.08-1.7-1.64-3.12-1.31h0c-1.42,.33-2.44,1.46-2.37,2.6l.63,9.88c.08,1.31,1.57,2.12,3.2,1.73Z"/>
            <path class="cls-31" d="M702.54,227.66c.31,1.98,1.77,3.41,3.25,3.18,1.48-.22,2.43-2.01,2.12-3.99-.31-1.98-1.77-3.41-3.25-3.18-1.48,.22-2.43,2.01-2.12,3.99Z"/>
            <path class="cls-16" d="M712.45,216.99s-.18-.34-.61-.82c-.42-.49-1.1-1.14-2.04-1.75-.46-.31-1-.59-1.59-.86-.59-.26-1.25-.48-1.94-.65-.7-.14-1.43-.3-2.19-.29-.76-.07-1.53,.03-2.29,.13-.77,.09-1.5,.36-2.22,.58-.7,.27-1.35,.63-1.98,.96-.59,.39-1.12,.82-1.62,1.21-.49,.4-.86,.89-1.23,1.3-.36,.42-.67,.81-.87,1.21-.23,.38-.4,.73-.55,1.02-.28,.57-.4,.92-.4,.92,0,0,.37-.13,.93-.38,.28-.13,.63-.28,.98-.47,.35-.21,.8-.36,1.25-.56,.46-.18,.91-.45,1.42-.63,.51-.18,1.03-.39,1.56-.59,.55-.14,1.1-.33,1.65-.49,.58-.08,1.12-.3,1.71-.34,.57-.09,1.15-.18,1.73-.2,.58-.07,1.15-.04,1.72-.06,.56,.02,1.12,.03,1.66,.08,.54,.05,1.06,.09,1.54,.16,.97,.11,1.82,.26,2.42,.36,.62,.11,.98,.18,.98,.18Z"/>
            <path class="cls-31" d="M738.16,223.91c.19,2,1.55,3.51,3.04,3.37,1.49-.13,2.55-1.86,2.36-3.85-.19-2-1.55-3.51-3.04-3.37-1.49,.13-2.55,1.86-2.36,3.85Z"/>
            <path class="cls-16" d="M748.73,213.86s-.16-.35-.56-.86c-.39-.52-1.02-1.2-1.92-1.87-.44-.34-.96-.65-1.54-.95-.57-.3-1.21-.55-1.89-.77-.69-.18-1.41-.38-2.17-.42-.75-.11-1.53-.07-2.3-.01-.77,.04-1.52,.27-2.25,.44-.72,.22-1.39,.55-2.04,.84-.61,.35-1.17,.75-1.69,1.11-.52,.37-.92,.84-1.31,1.22-.38,.39-.72,.77-.95,1.16-.26,.36-.45,.71-.61,.98-.32,.55-.46,.89-.46,.89,0,0,.37-.1,.95-.32,.29-.11,.64-.24,1.01-.41,.37-.18,.82-.31,1.28-.48,.47-.15,.93-.39,1.45-.54,.52-.14,1.05-.32,1.59-.5,.56-.11,1.11-.26,1.68-.39,.58-.04,1.14-.23,1.73-.24,.58-.06,1.16-.11,1.74-.09,.58-.03,1.15,.03,1.72,.05,.56,.06,1.12,.1,1.65,.18,.53,.08,1.05,.15,1.52,.25,.97,.17,1.8,.36,2.39,.51,.61,.15,.96,.24,.96,.24Z"/>
            <g class="cls-9">
              <path class="cls-30" d="M693.59,244.42c.32,5.65,5.12,9.99,10.73,9.69,5.61-.3,9.9-5.12,9.59-10.77-.32-5.65-5.12-9.99-10.73-9.69-5.61,.3-9.9,5.12-9.59,10.77Z"/>
            </g>
            <g class="cls-9">
              <path class="cls-30" d="M737.49,241.97c.31,5.64,5.11,9.99,10.72,9.69,.12,0,.23-.02,.34-.03,.16-.59,.31-1.19,.45-1.8,.48-2.06,.87-4.19,1.14-6.39,.19-1.45,.33-2.94,.42-4.44,.04-2.43-.06-4.93-.29-7.46-1.01-.28-2.09-.4-3.2-.34-5.61,.29-9.9,5.11-9.58,10.77Z"/>
            </g>
            <path class="cls-4" d="M737.68,254.88s-12.82,5.68-26.79,1.74c0,0,5.81,11.04,15.72,10.39,9.92-.65,11.07-12.13,11.07-12.13Z"/>
            <path class="cls-16" d="M747.47,184.91h0c-.04,.52-.09,1.11-.16,1.74-.12,1.22-.26,2.62-.42,4.09-.25,2.33-.53,4.79-.76,6.82-.29,2.56-.51,4.42-.51,4.42,0,0-.29,.24-.84,.64-3.21,2.35-15.24,10.03-29.35,5.31-.08-.02-.15-.04-.23-.07-1.9-.66-3.67-1.16-5.32-1.52-1.28-.28-2.48-.5-3.62-.62-6.4-.74-10.6,.95-12.93,4.3-1.43,2.04-2.16,4.7-2.26,7.79-.3,8.75,2.36,18.87-1.26,20.45h0c-.62,.27-1.41,.29-2.43,.01-1.53-.41-3.02-1.39-4.4-2.67-.2-.18-.38-.35-.57-.54h0c-4.7-4.72-8.1-12.59-8.1-12.59l-.14-1.38c-.12-1.13-.18-2.26-.18-3.38-.15-15.51,9.76-29.56,24.78-34.35,.1-.03,.17-.05,.19-.06,.47-.1,39.27-.61,47.2-.55,.47,.74,.91,1.46,1.32,2.16Z"/>
          </g>
          <path class="cls-33" d="M618.19,581.18c3.36,.9,15.28,.58,31.32-.35,40.52-2.38,107.31-8.9,127.96-10.88,1.33-.15,2.49-.26,3.42-.32,1.3-.15,2.15-.23,2.58-.26l-.9-5.25s-.26-6.53-.58-15.84c-.41-10.64-.96-24.91-1.42-37.35-.58-13.78-1.04-25.29-1.19-27.12-.7-7.74-.72-25.61-.49-46.84,.06-4.7,.09-9.57,.09-14.53v-.26c-1.16-40.49-1.48-107.39-1.48-107.39l-31.67-11.02-13.69-4.76-1.36-.46s-.78,.96-1.19,1.42c-.41,.46-.81,.93-1.28,1.33-.67,.7-1.42,1.36-2.18,1.97-1.3,1.1-2.76,2.09-4.23,2.93-.52,.32-1.07,.61-1.62,.9-1.13,.55-2.29,1.04-3.45,1.48-1.71,.7-3.45,1.19-5.22,1.57-11.17,2.32-22.53-1.33-29.06-11.46l-4.87,1.45-11.46,3.42-37.21,11.14s.03,.14,.03,.49c.78,8.73,7.28,89.76,7.28,131.93,0,10.99-9.6,85.12-11.51,94.95-2.38,12.53-4.52,23.55-5.92,30.57-.29,2.76-.49,5.6-.7,8.53Z"/>
          <g class="cls-9">
            <path class="cls-12" d="M707.14,657.46l-3.75-.27,5.15-71.36,3.75,.27-3.24,44.91c3.34-2.45,8.52-6.5,11.78-10.26,3.62-4.16,8.8-33.52,11.23-51.05l3.73,.51c-.66,4.75-6.57,46.63-12.11,53-4.63,5.33-12.49,10.95-14.98,12.67l-1.56,21.57Z"/>
            <path class="cls-12" d="M625.53,586.24c-1.55,0-2.54-.09-2.7-.1l.36-3.75c.16,.02,16.02,1.38,25.86-8.53,10.07-10.14,13.24-25.33,13.27-25.48l3.69,.74c-.13,.67-3.4,16.43-14.29,27.39-8.62,8.68-20.81,9.72-26.19,9.72Z"/>
            <path class="cls-12" d="M781.22,589.68c-.38-.16-9.34-3.95-17.26-13.61-8.04-9.81-8.12-26.45-8.12-27.15h3.76c0,.16,.08,16,7.26,24.77,7.32,8.94,15.71,12.49,15.79,12.52l-1.44,3.47Z"/>
            <rect class="cls-12" x="634.78" y="547.44" width="143.97" height="3.76"/>
          </g>
          <path class="cls-7" d="M862.86,439.71l-30.99,22.34c-2,1.44-4.23,2.31-6.52,2.65-5.69-1.58-11.13-5.69-15.38-9.73-1.48-1.4-2.81-2.81-3.96-4.08-1.33-1.48-2.42-2.81-3.19-3.79,0,0-.02,0-.02-.02l-6.31-8.75-23.01-31.9v-.02l3.69-88.82,.1-2.35,.04-.62s.02-.02,.04,0c.69,.37,10.9,5.83,24.59,28.63,6.48,10.81,21.98,35.22,35.74,56.81,.48,.79,.98,1.58,1.48,2.35,.02,.04,.04,.06,.06,.1,.77,1.19,1.52,2.36,2.25,3.52,11.17,17.5,20.4,31.93,21.4,33.66Z"/>
          <polygon class="cls-30" points="910.1 362.6 910.1 362.62 910.08 362.6 910.1 362.6"/>
          <g>
            <path class="cls-7" d="M884.96,820.82l3.97,30.36,.19,1.42,.93,7.12,.9,6.91,.12,.99,.51,3.91,1.28,9.89s.02,.02,.04,.06c.56,.62,5.49,6.03,15.75,5.12,10.84-.93,13-3.68,13-3.68l.86-19.85,1.99-45.68-39.55,3.43Z"/>
            <polygon class="cls-30" points="884.96 820.82 888.93 851.18 889.12 852.6 890.04 859.72 890.95 866.63 922.52 863.07 924.51 817.39 884.96 820.82"/>
            <polygon class="cls-26" points="922.99 638.21 924.19 647.52 924.2 647.6 936.99 847 937.69 854.34 937.63 854.35 924.79 855.78 890.04 859.71 873.96 861.5 872.91 852.57 846.01 667.04 844.73 652.02 922.99 638.21"/>
            <path class="cls-26" d="M655.55,542.05s-29.12,105.16,37.75,118.1c66.87,12.94,132.87,3.77,132.87,3.77l98.74-5.1-1.69-18.84c-1.93-24.6-22.07-34.05-40.17-43.03-39-19.35-107.68-51.82-107.68-51.82l-119.82-3.09Z"/>
            <path class="cls-7" d="M738.76,873.49v.08c.27,.78,2.61,7.71,12.36,11,10.3,3.5,15.26-1.07,15.26-1.07l6.62-13.68,20.46-42.24-37.6-12.75-8.56,29.37-.41,1.4-2.02,6.87-2.22,7.65-.08,.25-1.03,3.54-2.8,9.58Z"/>
            <polygon class="cls-30" points="742.59 860.37 773 869.83 793.47 827.59 755.87 814.84 747.32 844.21 746.9 845.61 744.89 852.48 742.67 860.13 742.59 860.37"/>
            <polygon class="cls-26" points="866.36 663.39 863.72 672.39 863.7 672.47 792.99 859.72 790.69 866.72 790.63 866.71 744.89 852.48 729.46 847.66 732.08 839.06 784.28 658.84 789.15 644.57 866.36 663.39"/>
            <path class="cls-26" d="M868.11,647.9c0,.23-.03,.48-.05,.71l-1.52,13.23-.18,1.55-20.58,.96-60.93,2.81h-2.97l-99.15-.08c-30.52-.03-57.1-21.52-62.7-51.5-2.15-11.56-2.43-23.55-1.82-34.39,.18-2.94,.41-5.78,.68-8.52,1.75-17.67,7.27-47.66,7.27-47.66l103.28,23.27s21.85,9.71,48.03,21.67c21.77,9.96,46.58,21.47,64.3,30.26,17.89,8.87,28.34,27.85,26.33,47.67Z"/>
            <g class="cls-9">
              <path class="cls-12" d="M867.34,671.82l-4.01-.89,.06-.27,2.59-8.83,1.68-14.61c2.2-19.14-7.91-37.75-25.16-46.32-38.51-19.11-111.5-51.55-112.24-51.88l1.67-3.76c.73,.33,73.81,32.81,112.4,51.95,18.8,9.33,29.82,29.61,27.42,50.47l-1.77,15.13-2.64,9Z"/>
            </g>
            <g>
              <path class="cls-26" d="M997.88,922.47l-23-.15c.17,.07,.35,.12,.42,.15,.05,.02,.07,.02,.07,.02l-20.87-.22-9.5-.1-.94-.02c-.76,0-1.43-.27-1.92-.72-.49-.47-.79-1.09-.79-1.8v-.69l.02-.86-.02-.1-13.55-.1v.07l-.02,1.36,.02,.37-.02,.02c0,.3-.07,.62-.2,.89-.15,.37-.39,.67-.69,.94-.1,.07-.2,.15-.3,.2-.12,.07-.25,.15-.37,.2-.07,.05-.15,.07-.22,.1-.1,.02-.22,.07-.32,.07-.15,.05-.3,.05-.47,.07-.02,0-.1,.02-.15,.02l-27.09,.05h-4.1c-.07,0-.12-.02-.17-.02-.32-.02-.62-.07-.86-.17h-.02c-.32-.15-.62-.3-.84-.49-.02,0-.02-.02-.02-.02-.07-.07-.12-.2-.2-.27-.15-.17-.3-.35-.37-.54-.15-.3-.22-.64-.22-.96v-.57l-.02-1.41v-1.83l.05-5.87,.11-14.84,.59-16.66,.12-3.53h.74l16.67,.26,13.05,.12,.52-5.23,.05-.54c.15-1.23,1.18-2.2,2.44-2.17,1.16,0,2.12,.84,2.32,2,.59,3.41,2.54,6.39,5.43,8.32l10.46,6.88c19.27,9.23,46.24,22.21,47.99,23.84,2.74,2.54,4.74,5.82,5.63,9.45,.05,.2,.1,.39,.12,.57,.22,.99,.32,2,.37,3.03,.02,.3,.05,.57,.07,.86v.02Z"/>
              <g>
                <path class="cls-12" d="M997.88,922.47l-23-.15c.17,.07,.35,.12,.42,.15,.05,.02,.07,.02,.07,.02l-20.87-.22-9.5-.1-.94-.02c-.76,0-1.43-.27-1.92-.72-.49-.47-.79-1.09-.79-1.8v-.69l.02-.86c3.26,.02,6.56,.05,9.82,.07,18.6,.17,36.47,.32,46.24,.39,.22,.99,.32,2,.37,3.03,.02,.3,.05,.57,.07,.86v.02Z"/>
                <path class="cls-12" d="M927.78,919.32l.02,.37-.02,.02c0,.3-.07,.62-.2,.89-.15,.37-.39,.67-.69,.94-.1,.07-.2,.15-.3,.2-.12,.07-.25,.15-.37,.2-.07,.05-.15,.07-.22,.1-.1,.02-.22,.07-.32,.07-.15,.05-.3,.05-.47,.07-.02,0-.1,.02-.15,.02l-27.09,.05h-4.1c-.07,0-.12-.02-.17-.02-.32-.02-.62-.07-.86-.17h-.02c-.32-.15-.62-.3-.84-.49-.02,0-.02-.02-.02-.02-.07-.07-.12-.2-.2-.27-.15-.17-.3-.35-.37-.54-.15-.3-.22-.64-.22-.96v-.57l-.02-1.41v-.2c.52,0,1.06,.02,1.65,.02,7.5,.1,20.48,.2,35.01,.35l-.02,1.36Z"/>
              </g>
            </g>
            <g>
              <path class="cls-26" d="M817,952.43l-20.92-9.55c.13,.14,.26,.25,.32,.31,.03,.04,.06,.05,.06,.05l-18.95-8.75-8.63-3.98-.85-.41c-.7-.31-1.19-.83-1.46-1.44-.26-.63-.28-1.31,.02-1.97l.28-.63,.38-.78,.02-.1-12.32-5.64-.03,.07-.58,1.23-.13,.35h-.03c-.12,.28-.32,.54-.54,.74-.29,.28-.63,.45-1.01,.57-.12,.03-.24,.05-.35,.06-.14,.02-.29,.03-.42,.03-.09,.01-.17,0-.24,0-.1-.02-.23-.02-.32-.06-.16-.02-.29-.08-.46-.12-.02-.01-.1-.02-.15-.04l-24.74-11.05-3.74-1.68c-.07-.03-.1-.07-.15-.09-.28-.15-.53-.32-.72-.51h-.02c-.23-.28-.44-.53-.56-.8-.02-.01-.01-.03-.01-.03-.04-.1-.03-.23-.07-.33-.06-.22-.13-.44-.12-.65-.01-.33,.06-.68,.19-.97l.23-.52,.55-1.29,.75-1.67,2.45-5.34,6.18-13.49,7.36-14.95,1.56-3.17,.68,.3,15.1,7.06,11.86,5.46,2.61-4.56,.27-.48c.64-1.06,1.98-1.52,3.12-.98,1.06,.47,1.59,1.63,1.3,2.77-.85,3.35-.3,6.87,1.55,9.81l6.73,10.56c13.8,16.31,33.09,39.19,34.03,41.4,1.46,3.44,1.94,7.25,1.26,10.93-.04,.2-.07,.4-.12,.57-.2,.99-.53,1.95-.91,2.92-.1,.28-.19,.54-.29,.82v.02Z"/>
              <g>
                <path class="cls-12" d="M817,952.43l-20.92-9.55c.13,.14,.26,.25,.32,.31,.03,.04,.06,.05,.06,.05l-18.95-8.75-8.63-3.98-.85-.41c-.7-.31-1.19-.83-1.46-1.44-.26-.63-.28-1.31,.02-1.97l.28-.63,.38-.78c2.96,1.36,5.97,2.73,8.93,4.09,16.9,7.78,33.14,15.23,42.02,19.29-.2,.99-.53,1.95-.91,2.92-.1,.28-.19,.54-.29,.82v.02Z"/>
                <path class="cls-12" d="M754.34,920.85l-.13,.35h-.03c-.12,.28-.32,.54-.54,.74-.29,.28-.63,.45-1.01,.57-.12,.03-.24,.05-.35,.06-.14,.02-.29,.03-.42,.03-.09,.01-.17,0-.24,0-.1-.02-.23-.02-.32-.06-.16-.02-.29-.08-.46-.12-.02-.01-.1-.02-.15-.04l-24.74-11.05-3.74-1.68c-.07-.03-.1-.07-.15-.09-.28-.15-.53-.32-.72-.51h-.02c-.23-.28-.44-.53-.56-.8-.02-.01-.01-.03-.01-.03-.04-.1-.03-.23-.07-.33-.06-.22-.13-.44-.12-.65-.01-.33,.06-.68,.19-.97l.23-.52,.55-1.29,.08-.18c.47,.21,.96,.46,1.5,.7,6.8,3.16,18.6,8.57,31.8,14.65l-.58,1.23Z"/>
              </g>
            </g>
          </g>
          <g>
            <g>
              <path class="cls-7" d="M804.44,441.89c-.06,3.07,.46,6.15,1.57,9.02,1.16,1.25,2.47,2.67,3.97,4.06,4.23,4.06,9.69,8.18,15.37,9.72,1.3,.38,2.64,.61,3.97,.67,3.34,.15,12.56-5.63,24.48-14.41,28.22-20.77,71.52-58.41,87.38-74.13,.7-.67,1.36-1.33,1.94-1.94,.55-.55,1.04-1.07,1.51-1.57,1.42-1.54,2.47-2.7,3.05-3.45,1.45-1.86,2.23-2.9,2.23-2.9l-4.32-4.93-11.31-12.96-4.61,2.96-.03,.03-.23,.12h-.03l-2.47,1.39-87.7,48.98-.17,.12-6.67,3.74-20.04,18.1c-5.19,4.7-7.77,11.05-7.89,17.4Z"/>
              <path class="cls-7" d="M928.56,354.34s7.22-15.63,12.14-20.89c4.92-5.26,15.16-11.56,17.81-14.65l3.54-4.12c.36-.42,1.03-.32,1.26,.18,.79,1.78,2.01,5.52,.23,8.66-2.44,4.29-11.57,11.76-9.34,13.66,2.87,2.46,5.13,.9,8.98-3.05,4.62-4.77,19.81-20.12,23.72-20.04,4.63,.1,1.01,4.91,1.01,4.91,0,0,6.05-5.09,8.49-2.83,2.44,2.26-2.61,7.36-2.61,7.36,0,0,2.86-1.76,4.4,.57,1.54,2.33-8,13.85-8,13.85,0,0,3.41-2.8,3.56,1.54,.13,3.73-10.67,15.45-13.91,18.64-4.48,5.18-11.43,9.66-14.48,11.68-3.92,2.59-26.28,5.68-26.28,5.68l-10.5-21.15Z"/>
            </g>
            <path class="cls-30" d="M804.44,441.89c10.3,10.93,21.78,20.45,29.96,19.49,2.81-.32,9.98-4.35,19.4-10.44,28.22-20.77,71.52-58.41,87.38-74.13l-.93-1.51-6.87-11.22-.03-.03-6.44-10.5-87.7,48.98-.17,.12-6.67,3.74-20.04,18.1c-5.19,4.7-7.77,11.05-7.89,17.4Z"/>
            <path class="cls-33" d="M777.35,314.65s7.06,2.1,17.93,16.96,42.78,65.98,42.78,65.98l80.72-45.07,22.23,36.25s-99.29,74.51-111.68,76.59c-28.25,4.74-54.11-49.52-54.11-49.52l-5.32-63.32,7.44-37.87Z"/>
          </g>
          <g>
            <polygon class="cls-26" points="666.22 303.58 684.98 373.18 696.56 370.08 677.68 300.15 666.22 303.58"/>
            <polygon class="cls-26" points="732.14 299.02 750.96 368.83 762.54 365.73 745.83 303.78 732.14 299.02"/>
          </g>
          <polygon class="cls-26" points="707.07 552.14 624.82 542.08 631.66 447.74 653.89 438.07 683.98 355.9 759.39 354.08 780.05 415.71 781.98 548.29 707.07 552.14"/>
          <g>
            <path class="cls-33" d="M752.99,374.99c-3.07,0-5.56-2.49-5.56-5.56s2.49-5.56,5.56-5.56,5.56,2.49,5.56,5.56-2.49,5.56-5.56,5.56Zm0-8.22c-1.47,0-2.66,1.19-2.66,2.66s1.19,2.66,2.66,2.66,2.66-1.19,2.66-2.66-1.19-2.66-2.66-2.66Z"/>
            <path class="cls-33" d="M692.08,374.99c-3.07,0-5.56-2.49-5.56-5.56s2.49-5.56,5.56-5.56,5.56,2.49,5.56,5.56-2.49,5.56-5.56,5.56Zm0-8.22c-1.47,0-2.66,1.19-2.66,2.66s1.19,2.66,2.66,2.66,2.66-1.19,2.66-2.66-1.19-2.66-2.66-2.66Z"/>
          </g>
          <path class="cls-13" d="M726.84,424.36h-8.61c-17.12,0-31.05-13.93-31.05-31.05v-5.34h70.7v5.34c0,17.12-13.93,31.05-31.05,31.05Zm-36.14-32.87v1.82c0,15.18,12.35,27.53,27.53,27.53h8.61c15.18,0,27.53-12.35,27.53-27.53v-1.82h-63.67Z"/>
          <g>
            <path class="cls-7" d="M689.96,510.37s17.18-1.25,24.16,.5c6.98,1.76,17.46,7.66,21.44,8.48l5.32,1.09c.54,.11,.78,.75,.45,1.19-1.18,1.55-3.85,4.44-7.46,4.39-4.94-.06-15.89-4.43-16.48-1.56-.76,3.7,1.7,4.93,7.02,6.37,6.41,1.73,27.2,7.58,29.02,11.05,2.16,4.1-3.8,3.26-3.8,3.26,0,0,7.38,2.82,6.59,6.05-.8,3.23-7.7,1.29-7.7,1.29,0,0,2.92,1.65,1.63,4.12-1.29,2.47-15.99-.29-15.99-.29,0,0,4.1,1.63,.38,3.86-3.2,1.92-18.68-1.85-23.04-3.14-6.7-1.41-13.99-5.32-17.23-7.02-4.17-2.18-17.7-20.24-17.7-20.24l13.41-19.43Z"/>
            <path class="cls-7" d="M558.65,486.87c6.7,10.53,36.6,24.28,62.99,34.77,0,0,.03,.03,.06,.03,15.43,4.84,31.29,9.14,44.4,12.5,2.93,.75,5.71,1.45,8.32,2.09,3.25,.81,6.21,1.54,8.85,2.18,8.18,1.94,13.25,3.07,13.25,3.07l6.5-24.07-12.7-7.11-5.16-2.9-7.31-4.09-78.42-43.88-36.43-7.63s-8.21,16.39-4.35,35.03Z"/>
          </g>
          <path class="cls-30" d="M558.65,486.87c6.7,10.53,36.6,24.28,62.99,34.77,0,0,.03,.03,.06,.03,15.43,4.84,31.29,9.14,44.4,12.5,2.93,.75,5.71,1.45,8.32,2.09l2.32-6.21,.44-1.19,7.98-21.43-7.31-4.09-78.42-43.88-36.43-7.63s-8.21,16.39-4.35,35.03Z"/>
          <path class="cls-33" d="M550.7,483.63c.23,.52,.49,1.04,.87,1.57,6.93,10.9,37.93,25.14,65.28,36.02,0,0,.03,.03,.06,.03,23.72,9.45,48.1,16.63,48.1,16.63l14.61-39.32-61.99-34.38,28.51-46.88,2.44-47.39-5.34-33.35-14.15-21.78c-27.7,8.67-70.91,113.63-70.91,113.63,0,0-16.24,34.93-7.48,55.23Z"/>
          <g class="cls-9">
            <path class="cls-12" d="M639.75,587.95c-3.14,0-6.44-.29-9.91-.91l.73-4.05c38.08,6.88,55.1-30.81,55.27-31.19l3.77,1.65c-.16,.38-15.58,34.5-49.86,34.5Z"/>
          </g>
        </g>
        <g>
          <path class="cls-16" d="M1736.65,929.05l11.42-.09c-1.25-4.53-3.05-13.1-1.23-19.64,0,0,4.82,12.81,10.5,19.56l33.54-.26c6.51-22.56-.14-26.6-6.21-43.09-6.07-16.49-5.36-26.76-5.36-26.76l-35.42,8.82c2.17,6.51,1.54,15.95-.29,20.46-10.29,25.27-6.94,41.01-6.94,41.01Z"/>
          <circle class="cls-16" cx="1793.51" cy="853.63" r="51.89" transform="translate(-113.58 298.31) rotate(-9.22)"/>
          <path class="cls-7" d="M1721.83,988.91c0,1.05,.04,2.09,.13,3.14,0,.18,0,.33,.02,.51,.02,.18,.04,.33,.04,.51,.02,.31,.04,.64,.09,.94,.04,.62,.13,1.23,.22,1.87,.07,.46,.15,.97,.22,1.45,.11,.62,.22,1.23,.35,1.85,.07,.33,.13,.68,.2,1.03,.04,.24,.11,.48,.18,.72,.07,.24,.11,.48,.18,.75,.11,.48,.24,.99,.35,1.49,.13,.51,.29,1.01,.42,1.52,.15,.51,.31,1.03,.46,1.56,.07,.26,.15,.51,.22,.77,.07,.26,.15,.53,.24,.79,.18,.53,.35,1.08,.53,1.6,.18,.53,.35,1.08,.55,1.63,.2,.55,.42,1.1,.62,1.67,.04,.13,.07,.26,.11,.37,.09,.2,.15,.42,.24,.61,.04,.29,.15,.53,.24,.79,.2,.57,.46,1.12,.68,1.71l.51,4.17,8.1,37.34s.02,.04,.02,.07l3.38,15.57,.04,.24-.44,11.66-.02,.75-.15,3.89-.24,6.9-.44,12.81v.02l-.13,3.36,34.44,.2h.75l8.54,.04h4.26l27.3,.18,15.02,.07c-.18-2.15-.42-5.16-.66-8.63v-.04c-.02-.68-.07-1.38-.09-2.11-.04-.59-.07-1.19-.11-1.78,0-.13-.02-.29-.02-.46v-.11c-.07-1.3-.15-2.66-.22-4.04-.07-2.13-.15-4.31-.24-6.5v-.18c-2.57-2.7-4.24-4.09-4.61-4.39-.02-.04-.04-.07-.04-.07v-11.8h-.9c1.25-2.66,2.59-5.49,3.93-8.43,.66-1.47,1.32-2.99,2-4.5,3.05-7.01,6.04-14.48,8.41-21.79,.22-.64,.42-1.27,.61-1.91,.79-2.75,1.58-5.62,2.39-8.57,.66-2.31,1.32-4.68,1.98-7.09v-.02s.02-.07,.04-.11c.57-2.06,1.14-4.17,1.76-6.33,2.22-7.93,4.48-16.06,6.63-23.9,.04-.09,.07-.2,.09-.29,.29-1.47,.57-2.94,.81-4.39,.26-1.45,.51-2.9,.75-4.33,.11-.7,.22-1.43,.35-2.13,.33-2.13,.64-4.22,.92-6.26,.46-3.38,.86-6.63,1.19-9.69,.13-1.23,.24-2.42,.37-3.56,.26-2.88,.51-5.51,.68-7.84,.07-.92,.13-1.8,.2-2.64,.13-2.09,.24-3.82,.31-5.18,.02-.55,.04-1.01,.07-1.43,.02-.4,.04-.75,.04-1.01v-.35l-7.71-2.64-11.14-3.76-1.19-.4-7.09-2.42h-.02l-.55-.2c-.07-.02-.15-.04-.22-.04-4.44-1.05-9.62-1.45-12.19-3.6l-1.54,1.01c-.86,.59-1.98,1.23-3.32,1.93-12.56,6.55-29.76,5.67-40.85-3.16-.07-.07-.09-.09-.18-.15l-.02-.02-4.9,.92-10.13,1.91-2.64,.51-11.14,2.11-3.12,7.2-10.21,23.92c-.75,1.69-1.41,3.34-1.98,4.96-.2,.53-.4,1.05-.57,1.58-.35,1.05-.68,2.09-.99,3.1-.37,1.27-.68,2.53-.97,3.76-.26,1.23-.48,2.44-.68,3.65-.37,2.42-.55,4.77-.55,7.14Z"/>
          <path class="cls-30" d="M1798.29,875.8c1.12,3.88,8.8,5.06,17.14,2.63,8.34-2.43,13.75-7.34,13.07-11.42-.9-5.41-8.8-5.06-17.14-2.63-8.34,2.43-14.19,7.54-13.07,11.42Z"/>
          <path class="cls-7" d="M1754.14,933.94s.26,5.01,4.09,10.98c.55,.83,1.16,1.71,1.87,2.59,.2,.26,.42,.53,.61,.81,5.82,7.51,16.78,23.99,41.49,16.45,5.84-1.78,10.41-4.44,13.95-7.49,4.44-3.82,7.31-8.24,9.14-12.28,0-.02,.02-.04,.02-.07,2.88-6.39,3.21-11.84,3.25-12.54v-.07c-.18-.07-.37-.11-.55-.13-.07-.02-.15-.04-.22-.04-4.44-1.05-9.62-1.45-12.19-3.6-.26-.22-.45-.5-.7-.7-5.99-4.86-5.06-28.72-4.34-43.02,.24-4.81,.42-7.97,.42-7.97l-39.04,13.46s.55,11.77,.83,21.37c.13,5.69,.24,10.57,.04,11.75-.29,1.89-1.45,3.45-3.1,4.74-1.49,1.21-3.4,2.22-5.36,3.01-4.94,2-10.21,2.75-10.21,2.75Z"/>
          <path class="cls-16" d="M1802.59,929.05l8.05-.07c-.99-1.86-2.08-5.02-2.85-10.34,0,0,5.36,6.84,9.77,10.29l19.16-.16c8.75-9.35,9.68-26.19,9.68-26.19,5.21,15.41,1.34,23.32-.69,26.12l11.11-.09c6.51-22.56-.14-26.6-6.21-43.09-6.07-16.49-5.36-26.76-5.36-26.76l-19.95,16.12-13.3,4.84c-21.28,32.28-9.4,49.31-9.4,49.31Z"/>
          <path class="cls-30" d="M1771.93,890.3s.53,11.8,.82,21.38c2.85,.97,5.87,1.74,9.01,1.49,22.52-1.82,29.26-43.67,29.26-43.67l-39.08,20.81Z"/>
          <path class="cls-7" d="M1816.42,852.17c-.29,3.14-.66,6.55-.97,9.96-2.43,26.92-18.26,47.46-36.88,45.77-13.99-1.26-24.33-13.06-27.53-30.3-.09-.49-.18-1-.24-1.51-.64-3.92-.91-8.12-.8-12.53,.02-.62,.04-1.24,.09-1.88,.04-.89,.11-1.77,.2-2.66,.58-6.42,1.66-15.18,2.9-21.25,.53-2.7,3.34-4.27,5.91-3.32,1.9,.69,4.18,1.51,6.88,2.41,9.89,3.34,27.29,1.95,39.42,2.63,6.6,.38,11.62,6.09,11.02,12.66Z"/>
          <path class="cls-23" d="M1784.43,887.48s-10.17-3.83-12.12-3.09l-1.95,.74s-1.06-1.29-1.95-1.54c-.89-.24-7.2,.03-7.2,.03,0,0-1.09,4.61,1.45,8.7,.14,.22,.22,.31,.34,.46,3.33,4.26,9.36,5.75,14.24,3.41,.99-.48,2.3-1.54,3-2.21,3.02-2.91,4.18-6.49,4.18-6.49Z"/>
          <path class="cls-4" d="M1761.22,883.62s8.99,6.08,23.22,3.86c0,0-4.67,8.48-14.39,6.87-8.28-1.38-8.83-10.73-8.83-10.73Z"/>
          <path class="cls-30" d="M1771.74,875.53l-1.7-.45c-1.15-.31-1.87-1.23-1.55-1.98l2.4-5.67c.28-.65,1.25-.95,2.25-.68h0c1,.27,1.7,1.01,1.62,1.72l-.7,6.13c-.09,.81-1.17,1.25-2.32,.94Z"/>
          <path class="cls-31" d="M1794.29,862.12c-.29,1.78-1.57,3.05-2.87,2.83-1.3-.21-2.11-1.83-1.83-3.61,.29-1.78,1.57-3.05,2.87-2.83,1.3,.21,2.11,1.83,1.83,3.61Z"/>
          <path class="cls-16" d="M1785.68,852.42s.16-.3,.54-.73c.37-.44,.97-1.01,1.8-1.55,.41-.28,.88-.52,1.4-.76,.52-.23,1.09-.42,1.7-.57,.61-.12,1.26-.25,1.92-.24,.67-.05,1.34,.04,2.01,.14,.67,.09,1.31,.34,1.94,.54,.61,.25,1.18,.58,1.73,.88,.51,.36,.98,.74,1.41,1.1,.43,.37,.75,.81,1.07,1.18,.31,.38,.58,.73,.76,1.1,.2,.34,.35,.66,.47,.92,.24,.51,.35,.83,.35,.83,0,0-.32-.12-.81-.35-.24-.12-.55-.25-.86-.43-.31-.19-.7-.33-1.09-.51-.4-.17-.79-.41-1.24-.58-.45-.16-.9-.36-1.36-.55-.48-.13-.96-.3-1.44-.45-.5-.07-.98-.28-1.49-.32-.5-.09-1.01-.17-1.51-.19-.5-.07-1.01-.04-1.51-.07-.49,.01-.98,.02-1.45,.06-.47,.04-.93,.07-1.35,.13-.85,.09-1.59,.21-2.12,.3-.55,.1-.86,.15-.86,.15Z"/>
          <path class="cls-31" d="M1762.94,856.49c-.29,1.78-1.57,3.05-2.87,2.83-1.3-.21-2.11-1.83-1.83-3.61,.29-1.78,1.57-3.05,2.87-2.83,1.3,.21,2.11,1.83,1.83,3.61Z"/>
          <path class="cls-16" d="M1754.33,846.8s.16-.3,.54-.73c.38-.44,.97-1.01,1.8-1.55,.41-.28,.88-.52,1.4-.76,.52-.23,1.09-.42,1.7-.57,.61-.12,1.26-.25,1.92-.24,.67-.05,1.34,.04,2.01,.14,.67,.09,1.31,.34,1.94,.54,.61,.25,1.18,.58,1.73,.88,.51,.36,.98,.74,1.41,1.1,.43,.37,.75,.81,1.07,1.18,.31,.38,.58,.73,.76,1.1,.2,.34,.35,.66,.47,.92,.25,.51,.35,.83,.35,.83,0,0-.32-.12-.81-.35-.24-.12-.55-.25-.86-.43-.31-.19-.7-.33-1.09-.51-.4-.17-.79-.41-1.24-.58-.45-.16-.9-.36-1.36-.55-.48-.13-.96-.3-1.44-.45-.5-.07-.98-.28-1.49-.32-.5-.09-1.01-.17-1.51-.19-.5-.07-1.01-.04-1.5-.07-.49,.01-.98,.02-1.45,.06-.47,.04-.93,.07-1.35,.13-.85,.09-1.59,.21-2.12,.3-.55,.1-.86,.15-.86,.15Z"/>
          <g class="cls-9">
            <path class="cls-30" d="M1799.95,878.51c-.92,3.94-4.75,6.4-8.56,5.5-3.81-.9-6.15-4.83-5.24-8.76,.92-3.94,4.75-6.4,8.56-5.5,3.81,.9,6.15,4.83,5.24,8.76Z"/>
          </g>
          <g class="cls-9">
            <path class="cls-30" d="M1758.38,870.45c-.84,3.61-4.12,5.98-7.59,5.64-.64-3.92-.91-8.12-.8-12.53,.02-.62,.04-1.24,.09-1.88,.97-.24,2.04-.24,3.05,0,3.81,.91,6.15,4.83,5.25,8.77Z"/>
          </g>
          <path class="cls-33" d="M1678.16,1072.19c21.35,7.86,44.06-30.46,56.87-54.58,.41-.77,.81-1.53,1.19-2.26,12.56-23.9,4.66-81.74,4.66-81.74,0,0-7.23,.4-15.5,10.91-10.1,12.86-22.48,37.94-34.39,59.83-23.9,43.92-16.38,33.22-18.44,50.45-1.08,9.15,.48,15.49,5.6,17.38Z"/>
          <path class="cls-7" d="M1688.25,1069.84s-1.73,2.57-5.7,3.32c-.02,0-.02,.02-.04,.02-.24,.04-.47,.09-.73,.11-.02,.02-.04,.02-.06,.02-.3-.02-.6-.02-.91-.06-1.23-.09-2.5-.26-3.84-.58-.32-.06-.67-.15-.99-.24-.69-.17-1.36-.39-2.07-.65-.35-.13-.69-.26-1.06-.41-.15-.06-.32-.11-.45-.19-2.33-.97-4.77-2.35-7.29-4.25-.28-.24-.6-.5-.91-.76-.24-.22-.47-.43-.73-.69-.02-.02-.06-.06-.11-.11-.28-.28-.56-.58-.86-.91-.15-.15-.28-.32-.43-.47-1.23-1.36-2.5-3-3.82-4.85-.28-.39-.54-.78-.82-1.21-.5-.69-.97-1.4-1.45-2.16-.11-.15-.19-.3-.3-.43-.32-.5-.63-1.01-.95-1.53-.65-1.04-1.29-2.11-1.96-3.24-.67-1.12-1.34-2.29-2.01-3.47-.32-.6-.67-1.21-1.01-1.81-.67-1.21-1.34-2.46-2.03-3.75-.22-.39-.43-.82-.65-1.23-.22-.41-.43-.82-.67-1.23-1.08-2.07-2.14-4.19-3.19-6.34-4.03-8.24-12.34-29.88-18.58-46.6-.02-.04-.02-.06-.04-.09-.69-1.86-1.36-3.67-1.98-5.37-.6-1.6-1.17-3.13-1.68-4.55-.8-2.18-1.53-4.12-2.14-5.78-.3-.8-.56-1.53-.8-2.18-.06-.15-.11-.3-.17-.45-.3-.86-.56-1.55-.76-2.11-.28-.76-.43-1.17-.43-1.17l5.59-2.44,6.88-3h.02l7.87-3.43s.11,.11,.32,.35c.04,.09,.11,.17,.17,.24,.13,.17,.3,.37,.5,.58,.41,.47,.93,1.12,1.57,1.88,.13,.17,.28,.32,.43,.52,.97,1.16,2.18,2.61,3.54,4.25,1.14,1.36,2.4,2.89,3.75,4.53,.11,.13,.24,.28,.35,.41,1.06,1.29,2.18,2.65,3.34,4.08l.06,.06c4.29,5.22,9.19,11.22,14.09,17.37,7.08,8.85,14.13,17.89,19.44,25.22,.13,.15,.24,.3,.32,.43,.04,.04,.06,.06,.06,.09,3.47,4.81,6.17,8.82,7.53,11.48,2.7,5.22,4.14,11.02,4.9,16.27,1.4,9.82-2.01,19.65-9.13,26.54Z"/>
          <path class="cls-33" d="M1855.57,941.73s6.27,.73,11.76,12.49c4.5,9.63,8.33,28.1,12.83,47.99,10,44.19,16.94,81.19-4.32,85.33-11.82,2.3-24.65-22.52-32.72-45.94-2.5-7.27-5.2-13.93-6.43-20.21-5.21-26.49,18.88-79.67,18.88-79.67Z"/>
          <polygon class="cls-22" points="1738.74 1112.98 1738.43 1110.19 1736.45 1112.98 1738.74 1112.98"/>
          <path class="cls-33" d="M1721.85,988.91c0,1.03,.02,2.09,.11,3.14,0,.33,.02,.68,.04,1.01,.02,.31,.07,.64,.11,.94,.04,.62,.13,1.23,.22,1.87,.07,.46,.15,.97,.22,1.45,.11,.62,.22,1.23,.35,1.85,.07,.35,.13,.68,.22,1.03,.09,.48,.22,.97,.33,1.47,.11,.48,.24,.99,.37,1.49,.13,.51,.26,1.01,.4,1.52,.13,.51,.29,1.03,.44,1.54,.15,.51,.31,1.03,.48,1.58,.18,.53,.35,1.08,.53,1.6,.18,.53,.35,1.08,.55,1.63,.2,.55,.4,1.1,.59,1.67,.04,.13,.09,.24,.13,.37,.09,.2,.15,.42,.24,.61,.07,.26,.15,.53,.26,.77,.18,.59,.46,1.14,.66,1.74l.51,4.17,6.13,56.08,.94,8.72,.11,.83,1.14,10.57,1.49,13.62,.42-.57,.02-.02,.09-.11,35.08-7.2,3.16-.66,9.51-1.95,6.94-1.41,18.45-3.8c-.02-.24,.24-.92,.77-2.04,.11-.26,.24-.53,.37-.83,.68-1.41,1.63-3.29,2.75-5.58,.18-.33,.35-.68,.53-1.03,1.6-3.25,3.56-7.2,5.67-11.62,1.27-2.66,2.59-5.49,3.91-8.43,.66-1.47,1.32-2.99,2-4.5,3.05-7.01,6.04-14.48,8.41-21.79,.22-.66,.44-1.3,.64-1.93,.9-2.88,1.69-5.75,2.37-8.54,.62-2.61,1.27-4.96,1.98-7.09v-.02s.02-.07,.04-.11c.22-.77,.51-1.49,.75-2.2,3.32-8.76,5.8-18.49,7.64-28.03,.02-.09,.04-.2,.07-.29,.29-1.47,.57-2.94,.83-4.39s.51-2.9,.75-4.33c.11-.7,.22-1.43,.35-2.13,.33-2.13,.64-4.22,.92-6.26,.46-3.38,.86-6.63,1.19-9.69,.13-1.23,.24-2.42,.37-3.56,.26-2.88,.51-5.51,.68-7.84,.07-.92,.13-1.8,.2-2.64,.13-2.09,.24-3.82,.31-5.18,.02-.55,.04-1.01,.07-1.43,.02-.4,.04-.75,.04-1.01,.02-.13,.02-.26,.02-.35h-.02l-40.89-13.87c.13-.09-6.18,11.87-21.96,12.29-18.53,.48-22.74-12.13-22.74-12.13l-29.97,5.81-12.57,31.03c-.75,1.69-1.41,3.34-1.98,4.96-.2,.53-.4,1.05-.57,1.58-.35,1.05-.68,2.09-.99,3.1-.37,1.27-.68,2.53-.97,3.76-.26,1.23-.48,2.44-.68,3.65-.35,2.42-.53,4.77-.53,7.14Z"/>
          <path class="cls-16" d="M1817.7,862.34s-6.12,2.52-10-.72c-3.88-3.24-5.91-17.08-14.18-19.54-8.28-2.46-10.24-2.64-25.67-1.42-15.42,1.22-16.91-1.76-16.91-1.76l1.31-2.49c1.1-2.1,3.52-3.13,5.79-2.47,1.5,.44,3.62,.92,6.61,1.41,9.57,1.55,27.94,.13,27.94,.13l14.21,.33c1.61,.04,3.19,.47,4.6,1.25h0c3.13,1.74,5.09,5.03,5.11,8.62l1.19,16.66Z"/>
          <path class="cls-30" d="M1685.13,1015.2l-37.42,26.34c-.44-.81-.88-1.64-1.32-2.47-1.07-2.06-2.15-4.17-3.2-6.33l39.19-21.01,2.75,3.47Z"/>
          <path class="cls-33" d="M1646.4,1039.06c.45,.83,.87,1.67,1.32,2.48,2.71,5.12,5.41,9.82,7.96,13.8,3.1,4.83,5.99,8.58,8.51,10.83,.31,.27,.62,.52,.91,.76,6.12,4.63,11.82,6.22,16.61,6.37,.97,.04,1.9,0,2.79-.08,6.63-.54,10.85-3.62,10.85-3.62,7.11-6.9,6.63-17.81,5.21-27.59-.66-4.59-1.84-9.57-3.93-14.24-.31-.7-.64-1.38-.99-2.05-1.41-2.75-4.22-6.96-7.89-11.99l-2.71,1.67-.15,.1-13.12,8.04-25.37,15.54Z"/>
          <path class="cls-28" d="M1758,1015.25l-7.18,2.7c-7.09,2.68-14.73,3.5-22.2,2.41l-.5-4.18c-.21-.58-.47-1.14-.67-1.71-.1-.27-.21-.51-.27-.77-.12-.33-.24-.67-.36-1.01l.23,.1c6.94,2.95,14.52,4.1,22.03,3.35l8.92-.9Z"/>
          <path class="cls-28" d="M1777.79,1016.67s.2,0,.57,0c.37,0,.9,.01,1.59,.02,.68,.01,1.51,.05,2.44,.11,.92,.01,1.93,.06,3.02,.11,1.12,0,2.29,.11,3.54,.1,.63,0,1.26,.04,1.91,.06,.65-.01,1.31,0,1.98,.01,1.34,.02,2.72-.01,4.12-.02,.7-.01,1.4-.06,2.11-.05,.7-.03,1.41-.07,2.12-.1,.71,0,1.41-.07,2.12-.12,.7-.06,1.41-.06,2.1-.14,.69-.07,1.39-.11,2.07-.16,.68-.07,1.36-.16,2.03-.2,.67-.03,1.32-.17,1.97-.22,.65-.07,1.28-.12,1.9-.22,1.23-.17,2.42-.28,3.51-.45,1.1-.13,2.12-.27,3.03-.41,.91-.12,1.73-.21,2.39-.31,1.34-.18,2.15-.23,2.15-.23,0,0-.56,.57-1.61,1.47-.52,.46-1.19,.95-1.98,1.5-.39,.28-.82,.55-1.27,.85-.47,.27-.96,.54-1.47,.84-1.03,.59-2.19,1.11-3.44,1.65-1.25,.51-2.6,.99-4.03,1.4-1.43,.4-2.92,.76-4.46,.99-.77,.14-1.55,.24-2.33,.31-.79,.07-1.57,.17-2.36,.19-.79,.02-1.58,.03-2.37,.05-.79-.01-1.57-.07-2.35-.11-.78-.02-1.55-.15-2.3-.23-.76-.09-1.5-.18-2.23-.35-.73-.15-1.44-.28-2.13-.45-.69-.2-1.36-.37-2.01-.57-1.3-.36-2.49-.88-3.58-1.3-1.09-.49-2.07-.98-2.92-1.43-.81-.48-1.5-.92-2.07-1.3-.57-.37-1.02-.73-1.31-.94-.29-.23-.45-.36-.45-.36Z"/>
          <path class="cls-29" d="M1729.63,1017.1l.23-2.9-.11,1.45,.13-1.45c-.1,0-2.6-.29-4.89-3.11-2.29-2.82-4.75-8.71-3.48-20.8,2.52-23.98,13.31-45.79,13.42-46.01l-2.6-1.3c-.11,.22-11.13,22.48-13.71,47-1.12,10.59,.3,18.35,4.21,23.05,3.1,3.73,6.66,4.05,6.81,4.06Z"/>
          <rect class="cls-10" x="1736.09" y="1099.79" width="94.53" height="16.52"/>
          <path class="cls-17" d="M1829.06,1115.01c.85,0,1.53-.68,1.54-1.53,0-.85-.68-1.54-1.53-1.55l-90.32-.49h0c-.85,0-1.53,.68-1.54,1.53,0,.85,.68,1.54,1.53,1.55l90.33,.49h0Z"/>
          <g>
            <path class="cls-7" d="M1701.31,1554.4l.02-.09,12.39-.09v.07s15.49,1.12,17.29-.15h.02c1.85-1.36,3.67-2.72,5.43-4.09,.4-.33,.77-.64,1.21-.94l.02-.04c3.47-2.77,2.17-1.19,4.48-3.93,.22-.26,4.24-20.27,3.87-21.26-.35-.83,.51-14.54,1.25-23.52v-.07c.42-3.38,11.22-39.58,16.96-63.5v-.02c3.03-12.56,5.25-25.44,5.62-37.76,.29-8.98-.02-17.53-.7-25.44v-.02c-.61-7.03-1.52-13.6-2.55-19.57-1.49-8.59-3.27-16.01-4.88-22.01-2.35-8.7-5.34-21.42-5.34-21.42l-17.2-3.23-28.09-5.29s-.04,.24-.11,.64c-.53,2.75-2.55,13.35-2.57,13.35,0,.75,6.44,69.98,8.13,85.09,3.67,33.3,4.2,78.35,4.17,97.41,0,5.16-1.19,15.38-2.61,18.93-4.2,10.39-12.94,18.1-21.64,28.91-2.26,2.81-4.52,5.54-6.7,8.11-1.05,1.23,11.53-.07,11.53-.07Z"/>
            <path class="cls-7" d="M1702.48,1316.01l48.77,5.84s18.9-52.6,35.46-98.93c1.63-4.57,3.24-9.07,4.81-13.47,10.48-29.37,2.92-62.94-4.81-85.08-5.13-14.72-10.33-24.38-10.33-24.38l-49.88-4.34c-7.68,11.35-18.03,33.11-21.88,70.95-1.4,13.78-2.53,36.82-3.43,64.38h0c-.3,44.09,1.3,85.03,1.3,85.03Z"/>
            <path class="cls-7" d="M1756.99,1116.29v.02c.15,.57,2.94,10.96,7.73,26.07,1.63,5.16,3.49,10.87,5.58,16.93,.94,2.79,1.93,5.64,2.97,8.54,.72,1.98,1.45,4,2.2,6.02,2.15,5.84,4.46,11.82,6.9,17.81,1.41,3.43,2.86,6.88,4.35,10.28,1.36,3.12,2.75,6.22,4.17,9.25,.88,1.91,1.78,3.78,2.7,5.64,.07,.15,.13,.31,.22,.44,5.14,10.46,10.65,20.19,16.43,28.29,4.11,5.75,7.62,10.92,10.63,15.62,6.22,9.66,10.35,17.31,13.09,23.63,.44,.99,.83,1.93,1.19,2.86,4.55,11.55,5.78,93.31,27.3,129.64,18.12,30.53,28.88,65.94,29.45,68.14,.07,.26,.15,.51,.2,.79,.22,.75,.42,1.52,.62,2.26,.33,1.34,.51,2.9,.57,4.63,.24,4.35-.04,9.64,.81,14.47,.75,4.26,1.49,8.74,2.22,13.14,2.88,17.15,5.6,33.36,7.91,33.04,1.49-.22,7.4-4.13,13.73-9.53,9.82-8.35,20.6-20.21,17.53-27.17-1.6-3.62-2.28-6.06-4.52-9.64-.33-.53-.68-1.05-1.01-1.58-1.74-2.64-3.58-5.25-5.36-8.17-.2-.35-.4-.66-.57-.94-.26-.46-.53-.92-.81-1.41-1.45-2.59-3.05-5.36-4.39-8.63-.72-1.76-1.36-3.67-1.89-5.75-.09-.33-.15-.68-.24-1.03-.15-.62-.24-1.23-.35-1.85-.15-.99-5.07-48.06-7.86-78.59-1.38-15.16-3.4-30.25-6.15-45.2-2.94-16.28-6.68-32.42-11.27-48.3-2.68-9.25-4.79-17.77-8.17-26.58-.22-.59-.46-1.21-.68-1.82-5.38-14.41-9.4-29.81-10.39-50.7-1.34-28.01-13.22-64.88-24.07-96.1-2.04-5.84-4.26-11.42-6.7-16.58-.02-.02-.02-.04-.04-.09-2.2-4.63-4.55-8.96-7.07-12.87-3.34-4.39-6.35-7.82-8.79-10.35-2.53-2.7-4.42-4.39-5.38-5.23l-.02-.02c-.33-.29-.53-.44-.61-.53-.04-.02-.07-.04-.07-.04-.88-.59-1.74-1.12-2.57-1.58-1.05-.57-2.09-1.05-3.12-1.43h-.02c-.26-.09-.53-.18-.79-.24-3.18-1.01-6.46-1.03-10.13-.07-2.11,.55-2.81,1.8-4.22,2.64-.83,.48-1.69,1.01-2.57,1.58-1.82,1.14-3.73,2.44-5.78,3.87-1.01,.72-2.06,1.47-3.14,2.26-.7,.53-1.43,1.05-2.15,1.6-2.75,2.04-5.36,4.11-7.86,6.06-.02,.02-.07,.04-.09,.07-.07,.07-.15,.11-.22,.18t-.04,.04c-.79,.61-1.56,1.23-2.31,1.82-.2,.15-.42,.33-.62,.51-4.44,3.54-8.24,6.74-11.07,9.18-.64,.55-1.21,1.03-1.74,1.52-.68,.57-1.27,1.1-1.78,1.54-1.19,1.05-1.85,1.65-1.85,1.65Z"/>
            <path class="cls-30" d="M1716.56,1401.11c3.67,33.3,4.2,78.35,4.17,97.41,8.57,.59,17.95,1.21,26.56,1.76,.42-3.38,11.22-39.58,16.96-63.5v-.02c3.03-12.56,5.25-25.44,5.62-37.76,.29-8.98-.02-17.53-.7-25.44v-.02c-.61-7.03-1.52-13.6-2.55-19.57-1.49-8.59-3.27-16.01-4.88-22.01-2.35-8.7-5.34-21.42-5.34-21.42l-17.2-3.23-28.2-4.66c-.53,2.75-2.55,13.35-2.57,13.35,0,.75,6.44,69.98,8.13,85.09Z"/>
            <path class="cls-30" d="M1775.47,1173.88c2.15,5.84,4.46,11.82,6.9,17.81,1.41,3.43,2.86,6.88,4.35,10.28,1.36,3.12,2.75,6.22,4.17,9.25,.88,1.91,1.78,3.78,2.7,5.64,.07,.15,.13,.31,.22,.44,5.14,10.46,10.65,20.19,16.43,28.29,4.11,5.75,7.62,10.92,10.63,15.62,6.22,9.66,10.35,17.31,13.09,23.63,.44,.99,.83,1.93,1.19,2.86,4.55,11.55,5.78,93.31,27.3,129.64,18.12,30.53,28.88,65.94,29.45,68.14,.07,.26,.15,.51,.2,.79,.22,.75,.42,1.52,.62,2.26,.33,1.34,.51,2.9,.57,4.63,8.72-2.13,18.21-4.5,25.52-6.44-.72-1.76-1.36-3.67-1.89-5.75-.09-.33-.15-.68-.24-1.03-.15-.62-.24-1.23-.35-1.85-.15-.99-5.07-48.06-7.86-78.59-1.38-15.16-3.4-30.25-6.15-45.2-2.94-16.28-6.68-32.42-11.27-48.3-2.68-9.25-4.79-17.77-8.17-26.58-.22-.59-.46-1.21-.68-1.82-5.38-14.41-9.4-29.81-10.39-50.7-1.34-28.01-13.22-64.88-24.07-96.1-2.04-5.84-4.26-11.42-6.7-16.58-.02-.02-.02-.04-.04-.09-2.2-4.63-4.55-8.96-7.07-12.87-3.34-4.39-6.35-7.82-8.79-10.35l-6.41-.2-16.87-.48-11.99-.37-13.4-.4-.02,2.11v.18l-.09,8.32-.04,3.18-.02,2.31-.04,2.46v.29l-.11,10.04v.59l-.66,54.93Z"/>
            <path class="cls-26" d="M1786.7,1086v150.09l-6.47,83.23-13.31,171.58c-16.09-.54-69.3-5.07-69.3-5.07,0,0,.09-39.09,.58-90.5,.24-23.6,.54-49.82,.97-76.01,.5-30.85,1.14-61.72,2.01-88.35,.91-27.57,2.03-50.61,3.43-64.38,1.06-10.49,2.63-19.74,4.51-27.87,.02-.02,.02-.04,.02-.06,4.85-21.19,11.8-34.8,17.35-43,5.11-7.57,9.02-10.51,9.02-10.51l38.73,.65,12.47,.19Z"/>
            <path class="cls-26" d="M1928.39,1466.41c.5,.08-61.55,15.73-61.55,15.73l-51.05-162.81-28.65-97.6-.39-1.27-.04-.15-6.88-23.52-6.62-22.5,.73-61.1v-.6l.11-10.03v-.28l.04-2.46,.02-2.31,.13-11.5v-.19l.02-2.09,25.39,.75,16.87,.5,6.54,.19,.06,.06c.35,.28,2.03,1.68,4.62,4.38,2.61,2.68,6.15,6.69,10.18,12.15,5.8,7.79,12.6,18.51,19.16,32.6,.02,.02,.04,.06,.04,.09,2.11,4.55,4.21,9.47,6.21,14.74,8.31,21.75,23.43,97.11,37,170.16,7.81,42.09,13.19,64.31,18.39,94.17,4.75,27.21,9.66,52.91,9.66,52.91Z"/>
            <rect class="cls-26" x="1734.74" y="1073.35" width="88.32" height="12.63"/>
            <g>
              <path class="cls-26" d="M1649.63,1564.75l21.04-.11c-.18,.07-.33,.09-.4,.11-.04,.02-.07,.02-.07,.02l16.54-.15,2.55-.02,8.7-.09,.86-.02c.7,0,1.32-.24,1.76-.62,.46-.4,.72-.94,.72-1.56v-.59l-.02-.72,.02-.09,12.39-.09v.07l.02,1.16-.02,.31,.02,.02c0,.26,.07,.53,.18,.77,.15,.33,.37,.57,.64,.81,.09,.07,.18,.13,.29,.15,.11,.07,.22,.13,.33,.18,.07,.04,.13,.07,.2,.09,.09,.02,.22,.07,.31,.07,.13,.04,.26,.04,.42,.07,.02,0,.09,.02,.13,.02l9.4,.02,15.4,.02h3.73c.07,0,.11-.02,.15-.02,.31-.02,.57-.07,.79-.15h.02c.31-.13,.57-.26,.77-.42,.02,0,.02-.02,.02-.02,.07-.07,.11-.18,.2-.24,.13-.15,.26-.29,.33-.46,.13-.26,.2-.55,.2-.83v-.48l.02-1.21v-1.56l-.04-5.05-.04-7.56v-.35l-.04-4.85-.53-13.66-.02-.64v-.2l-.11-2.83h-1.1l-14.83,.22-11.95,.09-.46-4.48-.02-.2-.02-.29c-.15-1.05-1.1-1.87-2.24-1.87-1.05,0-1.95,.72-2.13,1.74-.53,2.92-2.33,5.49-4.96,7.14l-9.58,5.91c-17.62,7.93-42.28,19.09-43.89,20.49-2.5,2.17-4.35,5.01-5.16,8.13-.04,.15-.09,.33-.11,.48-.2,.86-.29,1.71-.33,2.61-.02,.24-.04,.48-.07,.72v.02Z"/>
              <g>
                <path class="cls-12" d="M1649.63,1564.75l21.04-.11c-.18,.07-.33,.09-.4,.11-.04,.02-.07,.02-.07,.02l16.54-.15,2.55-.02,8.7-.09,.86-.02c.7,0,1.32-.24,1.76-.62,.46-.4,.72-.94,.72-1.56v-.59l-.02-.72c-2.99,.02-6,.04-8.98,.04-.86,0-1.71,.02-2.55,.02-16.1,.15-31.26,.26-39.76,.33-.2,.86-.29,1.71-.33,2.61-.02,.24-.04,.48-.07,.72v.02Z"/>
                <path class="cls-12" d="M1713.74,1562.04l-.02,.31,.02,.02c0,.26,.07,.53,.18,.77,.15,.33,.37,.57,.64,.81,.09,.07,.18,.13,.29,.15,.11,.07,.22,.13,.33,.18,.07,.04,.13,.07,.2,.09,.09,.02,.22,.07,.31,.07,.13,.04,.26,.04,.42,.07,.02,0,.09,.02,.13,.02l9.4,.02,15.4,.02h3.73c.07,0,.11-.02,.15-.02,.31-.02,.57-.07,.79-.15h.02c.31-.13,.57-.26,.77-.42,.02,0,.02-.02,.02-.02,.07-.07,.11-.18,.2-.24,.13-.15,.26-.29,.33-.46,.13-.26,.2-.55,.2-.83v-.48l.02-1.21v-.18c-.46,0-.97,.02-1.52,.02-3.65,.04-8.74,.09-14.72,.15h-.02c-5.18,.04-11.09,.09-17.29,.15l.02,1.16Z"/>
              </g>
            </g>
            <g>
              <path class="cls-24" d="M1920.53,1562.2c-1.2,.53-2.39,1-3.55,1.36-2.92,.96-5.66,1.38-7.96,1.14-.35-.02-.67-.08-.99-.14-1.04-.2-1.98-.53-2.83-.94-1.22-.57-2.28-1.3-3.18-2.2-2.39-2.3-3.78-5.6-4.6-9.24-1.22-5.31-1.31-11.39-1.7-16.38-.62-7.85-1.84-17.29-1.96-21.63-.02-.65-.02-1.2,.02-1.61,.05-.53,.07-.83,.07-.83,0,0,.09,.94,.39,2.42,0,.04,.02,.1,.05,.16,.21,1.12,.55,2.52,1.06,4.03,2.07,6.43,9.28,15.2,20.51,13,.21-.02,.41-.08,.62-.12,.07,0,.16-.02,.23-.04,11.53-2.77,14.82-9.36,14.87-15.73,.02-5.62-2.06-11.63-3.67-14.13-.07-.12-.16-.22-.23-.33-.25-.39-.46-.69-.62-.9v-.02c-.02-.06-.07-.1-.09-.14,.02-.02,.02,0,.05,.02,1.27,1.26,9.89,12.7,14.81,24.02,0,.02,.02,.02,.02,.04,1.36,3.13,2.39,6.33,2.85,9.34,1.63,10.54-11.95,23.42-24.17,28.83Z"/>
              <g>
                <path class="cls-5" d="M1918.51,1556.43c-1.2,.53-2.39,1-3.55,1.36-3.36,1.1-6.47,1.51-8.95,1-1.04-.2-1.98-.53-2.83-.94-9.12-4.19-8.72-18.07-9.48-27.81-.71-9.05,.14-19.9,.44-22.95,.05-.53,.07-.83,.07-.83,0,0,.09,.94,.39,2.42,0,.04,.02,.1,.05,.16,.21,1.12,.55,2.52,1.06,4.03,2.12,6.55,7.18,15.24,18.76,12.59,.07,0,.16-.02,.23-.04,21.73-5.23,12.56-23.67,9.1-29.02-.07-.12-.16-.22-.23-.33-.25-.39-.46-.69-.62-.9,0,0,.02-.02,0-.02-.07-.1-.12-.18-.16-.22,.05,.02,.07,.06,.12,.1,1.63,1.61,17.67,18.73,19.79,32.56,1.63,10.54-11.95,23.42-24.17,28.83Z"/>
                <path class="cls-26" d="M1918.51,1553.26c.05,1.06,.02,2.12,0,3.17-1.2,.53-2.39,1-3.55,1.36-3.36,1.1-6.47,1.51-8.95,1-1.04-.2-1.98-.53-2.83-.94-9.12-4.19-8.72-18.07-9.48-27.81-.71-9.05,.14-19.9,.44-22.95,.05-.53,.07-.83,.07-.83,0,0,.09,.94,.39,2.42,0,.04,.02,.1,.05,.16,.21,1.12,.55,2.52,1.06,4.03,2.12,6.55,7.18,15.24,18.76,12.59,2.32,8.81,3.96,18.31,4.05,27.79Z"/>
              </g>
            </g>
          </g>
          <path class="cls-7" d="M1572.39,930.18s-4.23-3.05-1.69-5.81c2.34-2.54,7.98-.67,7.98-.67,0,0,1.22-2.94,5.92-2.53,5.01,.43,24.84,11.57,28.69,10.07,3.86-1.5-2.86-6.3-5.21-9.41-2.28-3.02-2.36-5.97-2.19-7.49,.05-.5,.63-.74,1.03-.44,2.85,2.16,12.34,9.59,18.15,17.17,5.71,7.43,13.28,23.45,15.74,28.8,.52,1.13,.82,1.78,.82,1.78l-19.38,11.34s-.85-.94-2.23-2.32h-.01c-3.01-3-8.54-8.04-13.19-9.7-6.78-2.42-29.74-13.27-31.03-15.38-1.3-2.09-.79-5.28-.79-5.28,0,0-3.14-1.84-4.11-4.09-.92-2.15,1.49-6.06,1.49-6.06Z"/>
          <path class="cls-7" d="M1889.58,1063.34c-.13,5.37-.93,16.81-2.39,29.61l-.22,1.66c-.04,.37-.06,.71-.11,1.08-.02,.19-.06,.41-.09,.63-.09,.71-.17,1.42-.28,2.15-.04,.41-.11,.84-.17,1.27-.62,4.96-1.38,9.98-2.22,14.85-1.51,8.38-7.87,36.94-9.87,45.86-.39,1.68-.6,2.65-.6,2.65l-19.89,1.23v-.02l-2.07,.15-.71,.04s-.02-.69-.06-1.96c-.19-7.91-.95-38.42-1.57-63.23-.02-.97-.04-1.92-.06-2.87-.02-.5-.02-.99-.04-1.49-.02-.47-.02-.95-.02-1.42-.13-4.65-.24-8.99-.34-12.8v-.04l.15-15.41,39.24-4.98c.67,.84,1.14,1.9,1.31,3t.02,.04Z"/>
          <path class="cls-30" d="M1871.36,1088.02l15.82,4.92c-.25,2.22-.54,4.49-.84,6.78l-37.01-.42c-.05-1.96-.09-3.89-.14-5.78l22.18-5.51Z"/>
          <path class="cls-33" d="M1889.9,1094.56l-2.91,.04h-.02l-37.71,1.83-2.76,.02-2.18-45.66-4.8-20.87s43.91-9.79,44.71-8.69c8.6,30.38,5.67,73.32,5.67,73.32Z"/>
          <path class="cls-7" d="M1856.6,1139.66h0s.24,.17,.24,.17l16.32,11.78,1.38,6.26-2.43,31.53c0,.1-.02,.18-.02,.27-.02,.12-.04,.27-.06,.39l-.28,2.52s-.03,0-.1-.04c-.81,4.74-2.4,11.72-3.63,13.92-1.53,2.71-3.7,1.38-3.7,1.38,0,0-5.76,5.09-8.97,6.02-3.22,.95-5.25,1.95-5.25,1.95,0,0-3.04,.72-5.53-.56-2.49-1.28-1.09-4.56-1.09-4.56l-2.15-1.71c-1.81-1.45,11.28-28.62,3.45-29.72-1.52-.21-4.6,6.63-5.78,8.71-2.98,5.25-7.56,4.54-7.56,4.54,0,0,7.13-25.81,9.59-30.14,2.02-3.56,7.07-10.84,10.86-16.2,2.26-3.18,4.08-5.7,4.57-6.37,.05-.09,.1-.14,.11-.16Z"/>
          <g>
            <path class="cls-26" d="M1798,996.36l8.63,4,30.22-65.15-1.19-.4-7.09-2.42h-.02v-.07c-.18-.07-.37-.11-.55-.13-.07-.02-.15-.04-.22-.04l-9.27,20.01-2.37,5.12-18.14,39.08Z"/>
            <polygon class="cls-26" points="1740.72 996.69 1750.01 998.67 1760.7 948.32 1760.84 947.66 1764.35 931.19 1764.79 929.08 1754.66 930.99 1753.41 936.84 1753.41 936.86 1740.72 996.69"/>
          </g>
          <polygon class="cls-26" points="1822.73 1085.3 1839.66 1030.21 1806.99 981.06 1744.39 978.77 1724.98 1011.09 1735.32 1085.3 1822.73 1085.3"/>
          <rect class="cls-13" x="1739.73" y="1083.35" width="76.79" height="3.51" transform="translate(-3.63 5.98) rotate(-.19)"/>
          <polygon class="cls-13" points="1782.24 1208.63 1774.67 1183.2 1762.48 1169.91 1753.62 1099.62 1757.11 1099.18 1765.83 1168.36 1777.8 1181.43 1785.61 1207.62 1782.24 1208.63"/>
          <rect class="cls-13" x="1774.48" y="1094.16" width="3.52" height="65.39" transform="translate(-135.31 248.89) rotate(-7.72)"/>
          <path class="cls-13" d="M1840.43,1130.15c-1.27-.46-31.19-11.64-36.81-39.19l3.44-.7c5.22,25.6,34.28,36.48,34.57,36.59l-1.2,3.3Z"/>
          <path class="cls-13" d="M1719.71,1134l-1.18-3.31c.97-.35,23.72-8.82,26.85-36.43l3.49,.4c-3.38,29.85-28.9,39.26-29.16,39.35Z"/>
          <g>
            <path class="cls-12" d="M1773.91,1034.96c-14.01,0-25.41-11.4-25.41-25.41v-6.69h50.81v6.69c0,14.01-11.4,25.41-25.41,25.41Zm-22.73-29.42v4.01c0,12.53,10.2,22.73,22.73,22.73s22.73-10.2,22.73-22.73v-4.01h-45.46Z"/>
            <g>
              <path class="cls-33" d="M1800.81,996.57c-2.37,0-4.3-1.93-4.3-4.3s1.93-4.3,4.3-4.3,4.3,1.93,4.3,4.3-1.93,4.3-4.3,4.3Zm0-7.26c-1.63,0-2.96,1.33-2.96,2.96s1.33,2.96,2.96,2.96,2.96-1.33,2.96-2.96-1.33-2.96-2.96-2.96Z"/>
              <path class="cls-33" d="M1747,996.57c-2.37,0-4.3-1.93-4.3-4.3s1.93-4.3,4.3-4.3,4.3,1.93,4.3,4.3-1.93,4.3-4.3,4.3Zm0-7.26c-1.63,0-2.96,1.33-2.96,2.96s1.33,2.96,2.96,2.96,2.96-1.33,2.96-2.96-1.33-2.96-2.96-2.96Z"/>
            </g>
          </g>
        </g>
        <g>
          <path class="cls-33" d="M1265.28,1277.28c-2.92,0-5.4-2.09-5.9-4.96-.57-3.25,1.61-6.37,4.87-6.94,3.32-.58,6.38,1.66,6.94,4.87,.57,3.26-1.61,6.37-4.87,6.94-.35,.06-.7,.09-1.04,.09Zm.01-8.87c-.16,0-.33,.02-.5,.05-1.56,.27-2.6,1.76-2.33,3.32,.27,1.54,1.72,2.61,3.32,2.33,1.56-.27,2.6-1.76,2.33-3.32-.24-1.38-1.43-2.37-2.82-2.37Z"/>
          <g>
            <polygon class="cls-13" points="748.97 1067.66 755.33 1054.33 755.86 1054.45 755.95 1054.49 943.09 1143.75 936.62 1157.32 749.48 1068.06 748.97 1067.66"/>
            <g>
              <polygon class="cls-26" points="914.9 1146.95 913.09 1129.43 905.38 1125.76 907.2 1143.28 914.9 1146.95"/>
              <polygon class="cls-26" points="870.53 1109.14 872.35 1126.66 880.04 1130.32 878.22 1112.8 870.53 1109.14"/>
              <polygon class="cls-26" points="835.67 1092.51 837.48 1110.02 845.2 1113.71 843.37 1096.18 835.67 1092.51"/>
              <polygon class="cls-26" points="800.82 1075.89 802.65 1093.41 810.34 1097.08 808.5 1079.55 800.82 1075.89"/>
              <polygon class="cls-26" points="765.95 1059.25 767.78 1076.78 775.49 1080.45 773.65 1062.93 765.95 1059.25"/>
            </g>
            <polygon class="cls-13" points="755.96 1054.48 732.53 1051.64 749.48 1068.06 754.52 1062.05 755.96 1054.48"/>
            <path class="cls-26" d="M930.8,1134.25h8.54c4.31,0,7.81,3.5,7.81,7.81v16.1c0,4.31-3.5,7.81-7.81,7.81h-8.54v-31.72h0Z" transform="translate(1291.35 2592.42) rotate(-154.5)"/>
            <polygon class="cls-13" points="971.4 1136.84 949.06 1183.66 957.35 1197.28 1042.1 1237.7 1071.95 1175.12 987.2 1134.7 971.4 1136.84"/>
            <rect class="cls-26" x="978.83" y="1140.7" width="54.28" height="82.73" transform="translate(1405.06 2682.05) rotate(-154.5)"/>
            <path class="cls-26" d="M953.17,1139.32l-13.65,28.62,9.54,15.72,8.28,13.62,6.33,10.43s2.74-1.19,6.74-4.2c6.23-4.68,15.5-13.76,22.02-29.54,6.19-14.94,7.51-26.28,7.51-33.2,.04-5.05-.66-7.73-.66-7.73l-12.09,1.65-15.8,2.14-18.22,2.48Z"/>
            <path class="cls-33" d="M1070.8,1146.4l-51.73,108.46,266.29,127.01c14.98,7.15,31.42,7.53,45.91,2.4,14.49-5.13,27.02-15.78,34.17-30.76,14.28-29.94,1.59-65.82-28.35-80.1l-266.29-127.01Z"/>
            <g class="cls-11">
              <path class="cls-29" d="M1285.36,1381.88c14.98,7.15,31.42,7.53,45.91,2.4,14.49-5.13,27.02-15.78,34.17-30.76,14.28-29.94,1.59-65.82-28.35-80.1l-16.68-7.96c24.24,16.36,33.49,48.45,20.53,75.63-7.15,14.98-19.68,25.63-34.17,30.76-14.49,5.13-30.93,4.74-45.91-2.4l24.5,12.43Z"/>
            </g>
            <rect class="cls-26" x="1005.5" y="1187.6" width="120.17" height="45.77" transform="translate(-485.72 1651.16) rotate(-64.5)"/>
            <g>
              <path class="cls-26" d="M1324,1291.52l-1.73,3.63,12.86,6.13c-2.96-3.87-6.7-7.19-11.12-9.76Z"/>
              <path class="cls-26" d="M1318.89,1302.23l-5.28,11.07,29.34,14c.36-4.91-.26-9.8-1.75-14.42l-22.31-10.64Z"/>
              <path class="cls-26" d="M1310.24,1320.38l-5.28,11.07,31.29,14.92c1.16-1.66,2.18-3.44,3.08-5.31,.9-1.89,1.62-3.81,2.2-5.75l-31.29-14.92Z"/>
              <path class="cls-26" d="M1301.58,1338.53l-5.28,11.07,22.31,10.64c4.52-1.73,8.72-4.34,12.33-7.71l-29.36-14Z"/>
              <path class="cls-26" d="M1305.79,1362.83l-12.87-6.14-1.74,3.65c4.78,1.82,9.75,2.63,14.61,2.49Z"/>
            </g>
            <g class="cls-9">
              <path class="cls-4" d="M1115.07,1197.15l182.84,87.21c3.91,1.87,8.6,.21,10.46-3.7h0c1.87-3.91,.21-8.6-3.7-10.46l-182.84-87.21c-3.91-1.87-8.6-.21-10.46,3.7h0c-1.87,3.91-.21,8.6,3.7,10.46Z"/>
            </g>
            <path class="cls-33" d="M1153.24,1339.43c-1.12,3.62-3.33,7.39-7.12,11.15-2.36,2.35-1.81,6.31,1.15,7.85,10.31,5.37,15.16,17.47,11.44,28.47l-15.07,44.5c-1.55,4.57-4.45,8.55-8.34,11.41l-3.23,2.39c-9.07-3.13-18.68-2.63-27.08,.86-8.4,3.49-15.6,9.97-19.83,18.84l130.6,62.29,16.47-34.53-17.11-8.16c.03-.16,.08-.31,.12-.48,4.37-17.41,20.85-81.72,29.34-93.6,5-7.03,14.38-10.14,22.33-11.5,7.7-1.33,14.07-1.03,14.07-1.03l-134.79-63.75s.72,.73,1.73,2.07c3.01,3.89,8.53,12.92,5.32,23.21Z"/>
            <path class="cls-26" d="M1217.77,1387.42l-25.55,53.57c-6.88,14.43-.77,31.69,13.66,38.58l9.37,4.47c4.37-17.41,20.85-81.72,29.34-93.6,5-7.03,14.38-10.14,22.33-11.5l.05-.11-10.62-5.07c-14.43-6.88-31.69-.77-38.58,13.66Z"/>
            <g class="cls-11">
              <path class="cls-29" d="M1147.92,1316.23c3.01,3.89,8.53,12.92,5.32,23.21l57.46,6.45-62.78-29.66Z"/>
            </g>
          </g>
        </g>
        <g>
          <g>
            <rect class="cls-18" x="1253.65" y="1515.99" width="235.39" height="16.96"/>
            <rect class="cls-2" x="1253.65" y="1515.99" width="235.39" height="9.69"/>
            <path class="cls-14" d="M1258.61,1562.29v-46.3h-4.96v46.3c0,1.37,1.11,2.48,2.48,2.48h0c1.37,0,2.48-1.11,2.48-2.48Z"/>
            <path class="cls-14" d="M1274.7,1515.99h-21.05v9.39h21.05c2.59,0,4.7-2.1,4.7-4.7h0c0-2.59-2.1-4.7-4.7-4.7Z"/>
          </g>
          <g>
            <path class="cls-14" d="M1448.96,1358.48l-8.38-1.64c-4.02-.79-8.18,.22-11.39,2.76l-18.65,14.71c-3.22,2.54-5.17,6.36-5.33,10.46l-1.66,41.46c-.2,4.98,2.26,9.7,6.46,12.39l1.21,.78,37.74-80.92Z"/>
            <path class="cls-33" d="M1426.58,1559.01h96.59c4.54,0,9.03-.26,13.43-.77v-140.59h-125.57c-1.96,8.42-3,17.21-3,26.23v96.59c0,10.25,8.3,18.55,18.55,18.55Z"/>
            <path class="cls-33" d="M1523.16,1559.01c4.54,0,9.03-.26,13.43-.77,57.26-6.65,101.7-55.32,101.7-114.36,0-63.59-51.55-115.14-115.14-115.14-54.57,0-100.27,37.96-112.14,88.91-1.96,8.42-3,17.21-3,26.23,0,63.59,51.55,115.14,115.14,115.14Z"/>
            <path class="cls-29" d="M1523.16,1519.35c2.98,0,5.92-.17,8.81-.51,37.54-4.36,66.67-36.26,66.67-74.97,0-41.69-33.79-75.48-75.48-75.48-35.77,0-65.73,24.88-73.51,58.29-1.29,5.52-1.97,11.28-1.97,17.19,0,41.69,33.79,75.48,75.48,75.48Z"/>
            <path class="cls-29" d="M1434.89,1540.67c.69,0,1.37-.04,2.04-.12,8.7-1.01,15.44-8.4,15.44-17.37,0-9.66-7.83-17.48-17.48-17.48-8.29,0-15.23,5.76-17.03,13.5-.3,1.28-.46,2.61-.46,3.98,0,9.66,7.83,17.48,17.48,17.48Z"/>
            <g>
              <path class="cls-14" d="M1461.86,1559.86v-13.11c0-2.71-2.2-4.9-4.9-4.9h0c-2.71,0-4.9,2.2-4.9,4.9v13.11c0,2.71,2.2,4.9,4.9,4.9h0c2.71,0,4.9-2.2,4.9-4.9Z"/>
              <path class="cls-14" d="M1478.66,1559.86v-13.11c0-2.71-2.2-4.9-4.9-4.9h0c-2.71,0-4.9,2.2-4.9,4.9v13.11c0,2.71,2.2,4.9,4.9,4.9h0c2.71,0,4.9-2.2,4.9-4.9Z"/>
              <path class="cls-14" d="M1495.45,1559.86v-13.11c0-2.71-2.2-4.9-4.9-4.9h0c-2.71,0-4.9,2.2-4.9,4.9v13.11c0,2.71,2.2,4.9,4.9,4.9h0c2.71,0,4.9-2.2,4.9-4.9Z"/>
              <path class="cls-14" d="M1512.24,1559.86v-13.11c0-2.71-2.2-4.9-4.9-4.9h0c-2.71,0-4.9,2.2-4.9,4.9v13.11c0,2.71,2.2,4.9,4.9,4.9h0c2.71,0,4.9-2.2,4.9-4.9Z"/>
              <path class="cls-14" d="M1529.03,1559.86v-13.11c0-2.71-2.2-4.9-4.9-4.9h0c-2.71,0-4.9,2.2-4.9,4.9v13.11c0,2.71,2.2,4.9,4.9,4.9h0c2.71,0,4.9-2.2,4.9-4.9Z"/>
            </g>
            <path class="cls-29" d="M1531.88,1548.92c-.45-5.83,3.62-11.02,9.36-12.08,9.18-1.69,32.06-7.31,46.95-23.03,18.98-20.04,30.06-43.07,30.92-72.28,0,0,1.71-7.25,10.02-7.89,8.32-.64,12.37,2.56,13.22,6.61,.64,3.06,.92,35.89,1.02,51.8,.08,12.38-2.97,24.64-9.18,35.35-4.83,8.34-12.15,17.03-23.18,23.51-24.48,14.37-57.08,12.8-67.34,11.86-2.7-.25-5.23-1.42-7.11-3.37-2.05-2.13-4.22-5.46-4.65-10.2,0-.09-.02-.19-.02-.28Z"/>
          </g>
        </g>
        <g>
          <path class="cls-3" d="M547.15,1526.79c0,6.62-1.04,13.01-2.94,18.99-2.23,6.93-5.62,13.34-9.99,18.99h-98.73c-4.37-5.65-7.76-12.06-9.99-18.99-1.9-5.98-2.94-12.37-2.94-18.99,0-34.41,27.89-62.3,62.3-62.3,28.88,0,53.19,19.65,60.21,46.33,1.38,5.1,2.09,10.44,2.09,15.97Z"/>
          <g>
            <path class="cls-4" d="M487.22,1504.09v60.67h-4.75v-60.67c0-1.31,1.07-2.35,2.37-2.35s2.37,1.04,2.37,2.35Z"/>
            <path class="cls-4" d="M487.22,1545.04v6.03l-4.75-3.7-19.65-15.28c-1.04-.81-1.23-2.28-.43-3.32,.81-1.04,2.3-1.23,3.32-.43l16.76,13.03,4.75,3.68Z"/>
          </g>
          <g>
            <circle class="cls-21" cx="940.29" cy="1353.33" r="33.81" transform="translate(-520.86 591.31) rotate(-27.67)"/>
            <circle class="cls-21" cx="905.64" cy="1408.02" r="15.91" transform="translate(-710.28 1845.62) rotate(-72.4)"/>
          </g>
        </g>
      </g>
      <g>
        <g class="cls-15">
          <path class="cls-27" d="M93.28,1038.72c.07-.31,.12-.62,.16-.94,.05-.38,.07-.77,.07-1.16,0-5.49-4.47-9.96-9.96-9.96-.77,0-1.53,.09-2.27,.26-.64,.15-1.26,.36-1.85,.62-3.52,1.58-5.84,5.08-5.84,9.08,0,5.49,4.47,9.96,9.96,9.96,4.73,0,8.77-3.32,9.73-7.85Z"/>
          <path class="cls-27" d="M101.74,1029.63c.42,0,.77-.34,.77-.77s-.34-.77-.77-.77h-.13v-1.1h.13c.42,0,.77-.34,.77-.77s-.34-.77-.77-.77h-.13v-4c0-1.61-1.3-2.91-2.91-2.91h-1.71v-33.47h4.6c.21,0,.39-.17,.39-.39s-.17-.39-.39-.39h-4.6s-1.14,0-1.14,0h-1.52s0,0,0,0v3.3s0,0,0,0v30.94h-10.78c-.35,0-.69,.01-1.04,.03h0c-.44-.48-1.07-.76-1.73-.73l-6.5,.26c-.64,.03-1.24,.33-1.64,.84l-2.31,2.92c-.4,.5-.56,1.16-.43,1.79l.18,.92h0c-2.85,3.19-4.59,7.41-4.59,12.03,0,9.5,7.34,17.29,16.65,18.01h0c.19,.39,.5,.62,.84,.69,.48,.1,5.63,.14,8.13,.16,1.94,.01,3.86-.47,5.54-1.44,1.31-.76,2.67-1.91,3.69-3.64,2.25-3.84,2.01-8.95,1.86-10.56-.04-.42-.22-.82-.53-1.11-.05-.05-.11-.1-.17-.15h0c.04-.34,.07-.69,.08-1.03h0s.16,0,.16,0c.42,0,.77-.34,.77-.77h0c0-.42-.34-.77-.77-.77h-.13v-1.1h.13c.42,0,.77-.34,.77-.77s-.34-.77-.77-.77h-.13v-1.1h.13c.42,0,.77-.34,.77-.77s-.34-.77-.77-.77h-.13v-1.1h.13Zm-7.42-9.04c.3-.23,.66-.4,1.04-.49,.16-.03,.32-.06,.48-.07,.05,0,.1,0,.15,0,.35,0,.69,.07,1,.19,1.02,.39,1.75,1.39,1.75,2.55,0,.11,0,.21-.02,.32-.1,.84-.58,1.57-1.26,2-.42,.27-.92,.42-1.46,.42-1.51,0-2.74-1.23-2.74-2.74,0-.43,.1-.84,.28-1.21,.19-.38,.46-.72,.8-.97Zm-23.19,16.03c0-5.35,3.35-10,8.3-11.72,.42-.14,.85-.27,1.29-.37,.92-.21,1.87-.32,2.83-.32,6.85,0,12.42,5.57,12.42,12.42,0,.48-.03,.97-.08,1.45-.03,.22-.06,.44-.1,.66-1.01,5.92-6.16,10.31-12.24,10.31-6.85,0-12.42-5.57-12.42-12.42Z"/>
        </g>
        <g class="cls-15">
          <rect class="cls-27" x="102.53" y="1219.96" width="74.26" height="5.78"/>
          <rect class="cls-27" x="89.07" y="1250.23" width="74.26" height="5.78"/>
          <polygon class="cls-27" points="207.79 1204.72 186.94 1183.87 189.78 1181.03 207.79 1199.03 226.05 1180.77 228.89 1183.61 207.79 1204.72"/>
        </g>
        <g class="cls-15">
          <path class="cls-27" d="M1964.13,590.39c-1.51-.58-3.09-1.32-4.54-2.22l-3.94-3.87h0s.12-.13,.12-.13c.77-.79,.76-2.05-.03-2.83h0c-.79-.77-2.05-.76-2.83,.03l-2.77,2.82-2.34-2.3-36.13-35.48-5.2-7.77h0s0,0,0,0l-7.63-5.06h0s0,0,0,0l-.14,.14h0s0,0,0,0l-3.15,3.21,.02,.02,5.05,7.65,7.86,5.05,38.47,37.78-2.77,2.82c-.77,.79-.76,2.05,.03,2.83,.79,.77,2.05,.76,2.83-.03l.12-.13,2.58,2.54c1.66,2.19,2.86,4.58,3.71,6.72,2.05,5.18,5.3,9.8,9.27,13.71l34.29,33.67c4.45,4.36,11.68,4.74,16.18,.43,4.65-4.46,4.66-11.85,.1-16.33l-34.83-34.2c-4.09-4.01-9.01-7.02-14.35-9.09Zm1.74,18.92l33.89,33.28c.69,.68,.7,1.8,.02,2.49-.68,.7-1.8,.7-2.49,.02l-33.89-33.28c-.69-.68-.7-1.8-.02-2.49,.68-.69,1.8-.7,2.49-.03t0,0Zm4.36-4.45l33.89,33.28c.69,.68,.7,1.8,.02,2.49-.68,.7-1.8,.7-2.49,.02l-33.89-33.28c-.7-.68-.7-1.8-.02-2.49,.68-.69,1.8-.7,2.49-.03t0,0Zm4.36-4.45l33.89,33.28c.7,.68,.7,1.8,.02,2.49-.68,.7-1.8,.7-2.49,.02l-33.89-33.28c-.69-.68-.7-1.8-.02-2.49,.68-.69,1.79-.7,2.49-.03t0,0Z"/>
        </g>
        <g class="cls-15">
          <path class="cls-27" d="M251.33,568.68c-4-2.8-7.84-4.08-10.13-4.64-.04-.93-.23-1.8-.57-2.62,3.5-2.03,7.25-.9,9.63,.32,2.66,1.36,6.18,1.26,7.39-1.61,1.21-2.87-1.71-8.96-4.32-12.24-2.62-3.28-6.06-5.79-11.73-.55-3.75,3.46-5.86,7.12-6.84,9.19-.51-.12-1.04-.17-1.58-.17-.8,0-1.57,.12-2.3,.33-2.87-3.07-2.51-7.1-1.75-9.72,.81-2.88,.03-6.33-3.02-6.94-3.06-.63-8.45,3.43-11.16,6.63-2.7,3.21-4.49,7.07,1.75,11.61,3.21,2.34,6.35,3.68,8.63,4.41-.12,.55-.18,1.12-.18,1.7,0,.75,.1,1.47,.3,2.15-2.8,.68-5.55-.22-7.44-1.2-2.66-1.36-6.18-1.26-7.39,1.61-1.21,2.87,1.71,8.96,4.33,12.24,2.61,3.28,6.04,5.79,11.71,.57,2.82-2.6,4.68-5.3,5.86-7.36,.22,.01,.44,.03,.67,.03,1.65,0,3.18-.5,4.46-1.36,2.43,2.93,2.13,6.66,1.47,9.16-.76,2.89,.1,6.31,3.16,6.88,3.06,.57,8.38-3.59,11.02-6.85,2.65-3.25,4.36-7.15-1.97-11.56Zm-14.58,1.43c-1.03,.66-2.24,1.03-3.55,1.03h-.01c-3.12,0-5.75-2.11-6.51-4.99-.17-.57-.24-1.16-.24-1.76,0-.45,.04-.9,.14-1.32,.5-2.56,2.47-4.6,5-5.21,.51-.14,1.05-.21,1.61-.21,.36,0,.71,.03,1.05,.09,2.47,.39,4.5,2.12,5.3,4.42,.18,.5,.31,1.04,.35,1.59,.03,.21,.04,.42,.04,.63,0,2.42-1.27,4.54-3.18,5.72Z"/>
          <path class="cls-27" d="M255.34,542.19l.79-1.01c-10.21-7.99-19.64,2.11-19.73,2.22l.95,.87c.35-.39,8.72-9.32,17.99-2.07Z"/>
          <path class="cls-27" d="M260.66,576.65c.67-12.06-10.12-13.1-10.23-13.11l-.11,1.28c.39,.03,9.66,.96,9.06,11.75l1.28,.07Z"/>
          <path class="cls-27" d="M215.3,583.75l-.58,1.15c2.03,1.01,4.02,1.41,5.87,1.41,6.27,0,11.08-4.46,11.14-4.51l-.88-.93c-.07,.07-7.48,6.93-15.56,2.89Z"/>
          <path class="cls-27" d="M215.61,559.27s-4.4-1.2-6.29-4.77c-1.1-2.09-1.15-4.6-.13-7.46l-1.21-.43c-1.14,3.22-1.07,6.08,.2,8.49,2.14,4.06,6.89,5.36,7.09,5.42l.33-1.24Z"/>
        </g>
        <g class="cls-15">
          <path class="cls-27" d="M2052.55,1273.7h-113.81c-5.33,0-9.67,4.34-9.67,9.67v33.84c0,5.33,4.34,9.67,9.67,9.67h113.81c5.33,0,9.67-4.34,9.67-9.67v-33.84c0-5.33-4.34-9.67-9.67-9.67Zm-113.81,4.87h113.81c2.65,0,4.8,2.15,4.8,4.8v16.88l-5.16-.04-6.79-5.34h-99.58l-6.73,5.37h-5.15s0-16.87,0-16.87c0-2.65,2.15-4.8,4.8-4.8Zm113.81,43.44h-12.69l-4.77-2.09h-78.89l-4.63,2.09h-12.83c-2.65,0-4.8-2.15-4.8-4.8v-12.09h6.86s6.72-5.38,6.72-5.38h96.19l6.78,5.33,6.86,.05v12.09c0,2.65-2.15,4.8-4.8,4.8Z"/>
          <rect class="cls-27" x="1977.55" y="1313.64" width="36.19" height="3.5"/>
          <path class="cls-27" d="M1975.34,1332.72c-2.59-1.71-2.28-3.6-2.23-3.81l-2.36-.58-2.35-.65c-.54,1.98-.26,6.12,4.26,9.1,1.63,1.07,2.75,2.73,2.99,4.43,.15,1.06-.09,1.8-.35,2.11-.31,.37-.71,.79-1.14,1.26-2.41,2.58-6.05,6.47-5.66,11.27l4.86-.39c-.21-2.65,2.43-5.48,4.36-7.55,.5-.54,.95-1.02,1.31-1.45,1.25-1.49,1.77-3.65,1.44-5.94-.45-3.1-2.32-5.94-5.13-7.79Z"/>
          <path class="cls-27" d="M2017.86,1332.72c-2.59-1.71-2.28-3.6-2.23-3.81l-2.36-.58-2.35-.65c-.54,1.98-.26,6.12,4.26,9.1,1.63,1.07,2.75,2.73,2.99,4.43,.15,1.06-.09,1.8-.35,2.11-.31,.37-.71,.79-1.14,1.26-2.41,2.58-6.04,6.47-5.66,11.27l4.86-.39c-.21-2.65,2.43-5.49,4.37-7.55,.5-.54,.95-1.02,1.31-1.45,1.25-1.49,1.77-3.65,1.44-5.94-.45-3.1-2.32-5.94-5.13-7.79Z"/>
          <path class="cls-27" d="M1996.6,1343.85c-2.59-1.71-2.28-3.6-2.23-3.81l-2.36-.58-2.35-.65c-.54,1.98-.26,6.12,4.26,9.1,1.63,1.07,2.74,2.73,2.99,4.43,.16,1.06-.09,1.8-.35,2.11-.31,.37-.71,.79-1.14,1.26-2.41,2.58-6.05,6.47-5.66,11.27l4.86-.39c-.21-2.65,2.43-5.48,4.37-7.55,.5-.54,.95-1.02,1.31-1.45,1.25-1.49,1.77-3.65,1.44-5.94-.45-3.1-2.32-5.94-5.13-7.79Z"/>
        </g>
      </g>
    </g>
  </g>
</svg>